<svg width="856" height="84" viewBox="0 0 856 84" fill="none" xmlns="http://www.w3.org/2000/svg">
<g filter="url(#filter0_d_1_12)">
<rect x="14" y="10" width="201" height="56" rx="15" fill="url(#paint0_linear_1_12)"/>
</g>
<g filter="url(#filter1_d_1_12)">
<rect x="223" y="10" width="201" height="56" rx="15" fill="white"/>
<rect x="224" y="11" width="199" height="54" rx="14" stroke="url(#paint1_linear_1_12)" stroke-width="2"/>
</g>
<g filter="url(#filter2_d_1_12)">
<rect x="432" y="10" width="201" height="56" rx="15" fill="white"/>
<rect x="433" y="11" width="199" height="54" rx="14" stroke="url(#paint2_linear_1_12)" stroke-width="2"/>
</g>
<g filter="url(#filter3_d_1_12)">
<rect x="641" y="10" width="201" height="56" rx="15" fill="white"/>
<rect x="642" y="11" width="199" height="54" rx="14" stroke="url(#paint3_linear_1_12)" stroke-width="2"/>
</g>
<path d="M71.9723 43H69.4411L74.0497 29.9091H76.9773L81.5923 43H79.0611L75.5646 32.5938H75.4624L71.9723 43ZM72.0554 37.8672H78.9588V39.772H72.0554V37.8672ZM90.8161 35.777L88.7067 36.0071C88.647 35.794 88.5426 35.5938 88.3935 35.4062C88.2486 35.2188 88.0526 35.0675 87.8054 34.9524C87.5582 34.8374 87.2557 34.7798 86.8977 34.7798C86.4162 34.7798 86.0114 34.8842 85.6832 35.093C85.3594 35.3018 85.1996 35.5724 85.2038 35.9048C85.1996 36.1903 85.304 36.4226 85.517 36.6016C85.7344 36.7805 86.0923 36.9276 86.5909 37.0426L88.2656 37.4006C89.1946 37.6009 89.8849 37.9183 90.3366 38.353C90.7926 38.7876 91.0227 39.3565 91.027 40.0597C91.0227 40.6776 90.8416 41.223 90.4837 41.696C90.13 42.1648 89.6378 42.5312 89.0071 42.7955C88.3764 43.0597 87.652 43.1918 86.8338 43.1918C85.6321 43.1918 84.6648 42.9403 83.9318 42.4375C83.1989 41.9304 82.7621 41.2251 82.6214 40.3217L84.8778 40.1044C84.9801 40.5476 85.1974 40.8821 85.5298 41.108C85.8622 41.3338 86.2947 41.4467 86.8274 41.4467C87.3771 41.4467 87.8182 41.3338 88.1506 41.108C88.4872 40.8821 88.6555 40.603 88.6555 40.2706C88.6555 39.9893 88.5469 39.7571 88.3295 39.5739C88.1165 39.3906 87.7841 39.25 87.3324 39.152L85.6577 38.8004C84.7159 38.6044 84.0192 38.2741 83.5675 37.8097C83.1158 37.3409 82.892 36.7486 82.8963 36.0327C82.892 35.4276 83.0561 34.9034 83.3885 34.4602C83.7251 34.0128 84.1918 33.6676 84.7884 33.4247C85.3892 33.1776 86.0817 33.054 86.8658 33.054C88.0163 33.054 88.9219 33.299 89.5824 33.7891C90.2472 34.2791 90.6584 34.9418 90.8161 35.777ZM95.0444 39.919L95.038 37.1257H95.4087L98.9371 33.1818H101.641L97.3008 38.0142H96.8214L95.0444 39.919ZM92.935 43V29.9091H95.2489V43H92.935ZM99.0969 43L95.9009 38.532L97.4606 36.902L101.865 43H99.0969ZM112.621 33.1818V34.9716H106.817V33.1818H112.621ZM108.268 43V32.255C108.268 31.5945 108.404 31.0447 108.677 30.6058C108.954 30.1669 109.325 29.8388 109.789 29.6214C110.254 29.4041 110.769 29.2955 111.336 29.2955C111.737 29.2955 112.093 29.3274 112.404 29.3913C112.715 29.4553 112.945 29.5128 113.094 29.5639L112.634 31.3537C112.536 31.3239 112.412 31.294 112.263 31.2642C112.114 31.2301 111.948 31.2131 111.764 31.2131C111.334 31.2131 111.029 31.3175 110.85 31.5263C110.676 31.7308 110.588 32.0249 110.588 32.4084V43H108.268ZM118.347 43.1918C117.388 43.1918 116.557 42.9808 115.854 42.5589C115.151 42.1371 114.605 41.5469 114.217 40.7884C113.834 40.0298 113.642 39.1435 113.642 38.1293C113.642 37.1151 113.834 36.2266 114.217 35.4638C114.605 34.701 115.151 34.1087 115.854 33.6868C116.557 33.2649 117.388 33.054 118.347 33.054C119.305 33.054 120.136 33.2649 120.839 33.6868C121.543 34.1087 122.086 34.701 122.469 35.4638C122.857 36.2266 123.051 37.1151 123.051 38.1293C123.051 39.1435 122.857 40.0298 122.469 40.7884C122.086 41.5469 121.543 42.1371 120.839 42.5589C120.136 42.9808 119.305 43.1918 118.347 43.1918ZM118.359 41.3381C118.879 41.3381 119.314 41.1953 119.663 40.9098C120.013 40.62 120.273 40.2322 120.443 39.7464C120.618 39.2607 120.705 38.7195 120.705 38.1229C120.705 37.522 120.618 36.9787 120.443 36.4929C120.273 36.0028 120.013 35.6129 119.663 35.3232C119.314 35.0334 118.879 34.8885 118.359 34.8885C117.827 34.8885 117.384 35.0334 117.03 35.3232C116.68 35.6129 116.418 36.0028 116.244 36.4929C116.073 36.9787 115.988 37.522 115.988 38.1229C115.988 38.7195 116.073 39.2607 116.244 39.7464C116.418 40.2322 116.68 40.62 117.03 40.9098C117.384 41.1953 117.827 41.3381 118.359 41.3381ZM125.015 43V33.1818H127.259V34.8182H127.361C127.54 34.2514 127.847 33.8146 128.281 33.5078C128.72 33.1967 129.221 33.0412 129.784 33.0412C129.911 33.0412 130.054 33.0476 130.212 33.0604C130.374 33.0689 130.508 33.0838 130.615 33.1051V35.2337C130.517 35.1996 130.361 35.1697 130.148 35.1442C129.939 35.1143 129.737 35.0994 129.541 35.0994C129.119 35.0994 128.74 35.1911 128.403 35.3743C128.07 35.5533 127.808 35.8026 127.617 36.1222C127.425 36.4418 127.329 36.8104 127.329 37.228V43H125.015ZM139.442 43.1982C138.82 43.1982 138.259 43.0874 137.761 42.8658C137.267 42.6399 136.874 42.3075 136.585 41.8686C136.299 41.4297 136.156 40.8885 136.156 40.245C136.156 39.6911 136.259 39.233 136.463 38.8707C136.668 38.5085 136.947 38.2188 137.301 38.0014C137.654 37.7841 138.053 37.62 138.496 37.5092C138.943 37.3942 139.406 37.3111 139.883 37.2599C140.458 37.2003 140.925 37.147 141.283 37.1001C141.641 37.049 141.901 36.9723 142.063 36.87C142.229 36.7635 142.312 36.5994 142.312 36.3778V36.3395C142.312 35.858 142.169 35.4851 141.884 35.2209C141.598 34.9567 141.187 34.8246 140.65 34.8246C140.083 34.8246 139.634 34.9482 139.301 35.1953C138.973 35.4425 138.752 35.7344 138.637 36.071L136.476 35.7642C136.646 35.1676 136.928 34.669 137.32 34.2685C137.712 33.8636 138.191 33.5611 138.758 33.3608C139.325 33.1562 139.951 33.054 140.637 33.054C141.11 33.054 141.581 33.1094 142.05 33.2202C142.519 33.331 142.947 33.5142 143.335 33.7699C143.722 34.0213 144.034 34.3643 144.268 34.799C144.507 35.2337 144.626 35.777 144.626 36.429V43H142.401V41.6513H142.325C142.184 41.924 141.986 42.1797 141.73 42.4183C141.479 42.6527 141.161 42.8423 140.778 42.9872C140.399 43.1278 139.953 43.1982 139.442 43.1982ZM140.043 41.4979C140.507 41.4979 140.91 41.4062 141.251 41.223C141.592 41.0355 141.854 40.7884 142.037 40.4815C142.225 40.1747 142.318 39.8402 142.318 39.478V38.321C142.246 38.3807 142.122 38.4361 141.948 38.4872C141.777 38.5384 141.585 38.5831 141.372 38.6214C141.159 38.6598 140.948 38.6939 140.74 38.7237C140.531 38.7536 140.35 38.7791 140.196 38.8004C139.851 38.8473 139.542 38.924 139.269 39.0305C138.997 39.1371 138.781 39.2862 138.624 39.478C138.466 39.6655 138.387 39.9084 138.387 40.2067C138.387 40.6328 138.543 40.9545 138.854 41.1719C139.165 41.3892 139.561 41.4979 140.043 41.4979ZM151.417 46.6818V33.1818H153.693V34.8054H153.827C153.947 34.5668 154.115 34.3132 154.332 34.0447C154.55 33.772 154.844 33.5398 155.214 33.348C155.585 33.152 156.058 33.054 156.633 33.054C157.392 33.054 158.076 33.2479 158.685 33.6357C159.299 34.0192 159.785 34.5881 160.143 35.3423C160.505 36.0923 160.686 37.0128 160.686 38.1037C160.686 39.1818 160.509 40.098 160.155 40.8523C159.802 41.6065 159.32 42.1818 158.711 42.5781C158.101 42.9744 157.411 43.1726 156.64 43.1726C156.077 43.1726 155.611 43.0788 155.24 42.8913C154.869 42.7038 154.571 42.478 154.345 42.2138C154.123 41.9453 153.951 41.6918 153.827 41.4531H153.731V46.6818H151.417ZM153.687 38.0909C153.687 38.7259 153.776 39.282 153.955 39.7592C154.138 40.2365 154.4 40.6094 154.741 40.8778C155.086 41.142 155.504 41.2741 155.994 41.2741C156.506 41.2741 156.934 41.1378 157.279 40.8651C157.624 40.5881 157.884 40.2109 158.059 39.7337C158.238 39.2521 158.327 38.7045 158.327 38.0909C158.327 37.4815 158.24 36.9403 158.065 36.4673C157.89 35.9943 157.631 35.6236 157.285 35.3551C156.94 35.0866 156.51 34.9524 155.994 34.9524C155.5 34.9524 155.08 35.0824 154.735 35.3423C154.39 35.6023 154.128 35.9666 153.949 36.4354C153.774 36.9041 153.687 37.456 153.687 38.0909ZM164.981 29.9091V43H162.667V29.9091H164.981ZM170.186 43.1982C169.564 43.1982 169.004 43.0874 168.505 42.8658C168.011 42.6399 167.619 42.3075 167.329 41.8686C167.043 41.4297 166.901 40.8885 166.901 40.245C166.901 39.6911 167.003 39.233 167.207 38.8707C167.412 38.5085 167.691 38.2188 168.045 38.0014C168.398 37.7841 168.797 37.62 169.24 37.5092C169.688 37.3942 170.15 37.3111 170.627 37.2599C171.202 37.2003 171.669 37.147 172.027 37.1001C172.385 37.049 172.645 36.9723 172.807 36.87C172.973 36.7635 173.056 36.5994 173.056 36.3778V36.3395C173.056 35.858 172.913 35.4851 172.628 35.2209C172.342 34.9567 171.931 34.8246 171.394 34.8246C170.827 34.8246 170.378 34.9482 170.045 35.1953C169.717 35.4425 169.496 35.7344 169.381 36.071L167.22 35.7642C167.391 35.1676 167.672 34.669 168.064 34.2685C168.456 33.8636 168.935 33.5611 169.502 33.3608C170.069 33.1562 170.695 33.054 171.381 33.054C171.854 33.054 172.325 33.1094 172.794 33.2202C173.263 33.331 173.691 33.5142 174.079 33.7699C174.467 34.0213 174.778 34.3643 175.012 34.799C175.251 35.2337 175.37 35.777 175.37 36.429V43H173.146V41.6513H173.069C172.928 41.924 172.73 42.1797 172.474 42.4183C172.223 42.6527 171.906 42.8423 171.522 42.9872C171.143 43.1278 170.697 43.1982 170.186 43.1982ZM170.787 41.4979C171.251 41.4979 171.654 41.4062 171.995 41.223C172.336 41.0355 172.598 40.7884 172.781 40.4815C172.969 40.1747 173.062 39.8402 173.062 39.478V38.321C172.99 38.3807 172.866 38.4361 172.692 38.4872C172.521 38.5384 172.33 38.5831 172.116 38.6214C171.903 38.6598 171.692 38.6939 171.484 38.7237C171.275 38.7536 171.094 38.7791 170.94 38.8004C170.595 38.8473 170.286 38.924 170.013 39.0305C169.741 39.1371 169.526 39.2862 169.368 39.478C169.21 39.6655 169.131 39.9084 169.131 40.2067C169.131 40.6328 169.287 40.9545 169.598 41.1719C169.909 41.3892 170.305 41.4979 170.787 41.4979ZM180.011 37.2472V43H177.697V33.1818H179.908V34.8501H180.023C180.249 34.3004 180.609 33.8636 181.104 33.5398C181.602 33.2159 182.218 33.054 182.951 33.054C183.629 33.054 184.219 33.1989 184.722 33.4886C185.229 33.7784 185.621 34.1982 185.898 34.7479C186.179 35.2976 186.317 35.9645 186.313 36.7486V43H183.999V37.1065C183.999 36.4503 183.829 35.9368 183.488 35.5661C183.151 35.1953 182.685 35.0099 182.088 35.0099C181.683 35.0099 181.323 35.0994 181.008 35.2784C180.697 35.4531 180.452 35.7067 180.273 36.0391C180.098 36.3714 180.011 36.7741 180.011 37.2472Z" fill="white"/>
<path d="M256.061 34.0895C255.955 33.7443 255.808 33.4354 255.62 33.1626C255.437 32.8857 255.215 32.6491 254.955 32.4531C254.7 32.2571 254.406 32.1101 254.073 32.0121C253.741 31.9098 253.379 31.8587 252.987 31.8587C252.283 31.8587 251.657 32.0355 251.107 32.3892C250.558 32.7429 250.125 33.2628 249.81 33.9489C249.499 34.6307 249.343 35.4616 249.343 36.4418C249.343 37.4304 249.499 38.2678 249.81 38.9538C250.121 39.6399 250.553 40.1619 251.107 40.5199C251.661 40.8736 252.305 41.0504 253.038 41.0504C253.702 41.0504 254.278 40.9226 254.763 40.6669C255.254 40.4112 255.631 40.049 255.895 39.5803C256.159 39.1072 256.291 38.5533 256.291 37.9183L256.828 38.0014H253.274V36.1477H258.586V37.7202C258.586 38.8409 258.347 39.8104 257.87 40.6286C257.393 41.4467 256.737 42.0774 255.901 42.5206C255.066 42.9595 254.107 43.179 253.025 43.179C251.819 43.179 250.76 42.9084 249.848 42.3672C248.94 41.8217 248.231 41.0483 247.719 40.0469C247.212 39.0412 246.959 37.848 246.959 36.4673C246.959 35.4105 247.108 34.4666 247.406 33.6357C247.709 32.8047 248.131 32.0994 248.672 31.5199C249.213 30.9361 249.848 30.4929 250.577 30.1903C251.305 29.8835 252.098 29.7301 252.955 29.7301C253.679 29.7301 254.354 29.8366 254.981 30.0497C255.607 30.2585 256.163 30.5568 256.649 30.9446C257.139 31.3324 257.542 31.7926 257.857 32.3253C258.173 32.858 258.379 33.446 258.477 34.0895H256.061ZM265.123 43.1918C264.139 43.1918 263.289 42.9872 262.573 42.5781C261.861 42.1648 261.314 41.581 260.93 40.8267C260.547 40.0682 260.355 39.1754 260.355 38.1484C260.355 37.1385 260.547 36.2521 260.93 35.4893C261.318 34.7223 261.859 34.1257 262.554 33.6996C263.248 33.2692 264.064 33.054 265.002 33.054C265.607 33.054 266.178 33.152 266.715 33.348C267.256 33.5398 267.733 33.8381 268.147 34.2429C268.564 34.6477 268.893 35.1634 269.131 35.7898C269.37 36.4119 269.489 37.1534 269.489 38.0142V38.7237H261.442V37.1641H267.271C267.267 36.7209 267.171 36.3267 266.983 35.9815C266.796 35.6321 266.534 35.3572 266.197 35.157C265.865 34.9567 265.477 34.8565 265.034 34.8565C264.561 34.8565 264.145 34.9716 263.787 35.2017C263.43 35.4276 263.15 35.7259 262.95 36.0966C262.754 36.4631 262.654 36.8658 262.65 37.3047V38.6662C262.65 39.2372 262.754 39.7273 262.963 40.1364C263.172 40.5412 263.464 40.8523 263.839 41.0696C264.214 41.2827 264.653 41.3892 265.155 41.3892C265.492 41.3892 265.797 41.3423 266.069 41.2486C266.342 41.1506 266.579 41.0078 266.779 40.8203C266.979 40.6328 267.131 40.4006 267.233 40.1236L269.393 40.3665C269.257 40.9375 268.997 41.4361 268.613 41.8622C268.234 42.2841 267.748 42.6122 267.156 42.8466C266.564 43.0767 265.886 43.1918 265.123 43.1918ZM273.761 37.2472V43H271.447V33.1818H273.658V34.8501H273.773C273.999 34.3004 274.359 33.8636 274.854 33.5398C275.352 33.2159 275.968 33.054 276.701 33.054C277.379 33.054 277.969 33.1989 278.472 33.4886C278.979 33.7784 279.371 34.1982 279.648 34.7479C279.929 35.2976 280.067 35.9645 280.063 36.7486V43H277.749V37.1065C277.749 36.4503 277.579 35.9368 277.238 35.5661C276.901 35.1953 276.435 35.0099 275.838 35.0099C275.433 35.0099 275.073 35.0994 274.758 35.2784C274.447 35.4531 274.202 35.7067 274.023 36.0391C273.848 36.3714 273.761 36.7741 273.761 37.2472ZM286.762 43.1918C285.778 43.1918 284.928 42.9872 284.212 42.5781C283.5 42.1648 282.952 41.581 282.569 40.8267C282.185 40.0682 281.994 39.1754 281.994 38.1484C281.994 37.1385 282.185 36.2521 282.569 35.4893C282.957 34.7223 283.498 34.1257 284.192 33.6996C284.887 33.2692 285.703 33.054 286.641 33.054C287.246 33.054 287.817 33.152 288.354 33.348C288.895 33.5398 289.372 33.8381 289.786 34.2429C290.203 34.6477 290.531 35.1634 290.77 35.7898C291.009 36.4119 291.128 37.1534 291.128 38.0142V38.7237H283.08V37.1641H288.91C288.906 36.7209 288.81 36.3267 288.622 35.9815C288.435 35.6321 288.173 35.3572 287.836 35.157C287.504 34.9567 287.116 34.8565 286.673 34.8565C286.2 34.8565 285.784 34.9716 285.426 35.2017C285.068 35.4276 284.789 35.7259 284.589 36.0966C284.393 36.4631 284.293 36.8658 284.288 37.3047V38.6662C284.288 39.2372 284.393 39.7273 284.602 40.1364C284.81 40.5412 285.102 40.8523 285.477 41.0696C285.852 41.2827 286.291 41.3892 286.794 41.3892C287.131 41.3892 287.435 41.3423 287.708 41.2486C287.981 41.1506 288.217 41.0078 288.418 40.8203C288.618 40.6328 288.769 40.4006 288.871 40.1236L291.032 40.3665C290.896 40.9375 290.636 41.4361 290.252 41.8622C289.873 42.2841 289.387 42.6122 288.795 42.8466C288.202 43.0767 287.525 43.1918 286.762 43.1918ZM293.085 43V33.1818H295.329V34.8182H295.431C295.61 34.2514 295.917 33.8146 296.352 33.5078C296.791 33.1967 297.291 33.0412 297.854 33.0412C297.982 33.0412 298.124 33.0476 298.282 33.0604C298.444 33.0689 298.578 33.0838 298.685 33.1051V35.2337C298.587 35.1996 298.431 35.1697 298.218 35.1442C298.009 35.1143 297.807 35.0994 297.611 35.0994C297.189 35.0994 296.81 35.1911 296.473 35.3743C296.141 35.5533 295.879 35.8026 295.687 36.1222C295.495 36.4418 295.399 36.8104 295.399 37.228V43H293.085ZM302.872 43.1982C302.249 43.1982 301.689 43.0874 301.191 42.8658C300.696 42.6399 300.304 42.3075 300.014 41.8686C299.729 41.4297 299.586 40.8885 299.586 40.245C299.586 39.6911 299.688 39.233 299.893 38.8707C300.097 38.5085 300.377 38.2188 300.73 38.0014C301.084 37.7841 301.482 37.62 301.926 37.5092C302.373 37.3942 302.835 37.3111 303.313 37.2599C303.888 37.2003 304.355 37.147 304.713 37.1001C305.07 37.049 305.33 36.9723 305.492 36.87C305.659 36.7635 305.742 36.5994 305.742 36.3778V36.3395C305.742 35.858 305.599 35.4851 305.313 35.2209C305.028 34.9567 304.617 34.8246 304.08 34.8246C303.513 34.8246 303.063 34.9482 302.731 35.1953C302.403 35.4425 302.181 35.7344 302.066 36.071L299.906 35.7642C300.076 35.1676 300.357 34.669 300.749 34.2685C301.142 33.8636 301.621 33.5611 302.188 33.3608C302.754 33.1562 303.381 33.054 304.067 33.054C304.54 33.054 305.011 33.1094 305.48 33.2202C305.948 33.331 306.377 33.5142 306.764 33.7699C307.152 34.0213 307.463 34.3643 307.698 34.799C307.936 35.2337 308.056 35.777 308.056 36.429V43H305.831V41.6513H305.754C305.614 41.924 305.416 42.1797 305.16 42.4183C304.909 42.6527 304.591 42.8423 304.208 42.9872C303.828 43.1278 303.383 43.1982 302.872 43.1982ZM303.472 41.4979C303.937 41.4979 304.34 41.4062 304.681 41.223C305.021 41.0355 305.284 40.7884 305.467 40.4815C305.654 40.1747 305.748 39.8402 305.748 39.478V38.321C305.676 38.3807 305.552 38.4361 305.377 38.4872C305.207 38.5384 305.015 38.5831 304.802 38.6214C304.589 38.6598 304.378 38.6939 304.169 38.7237C303.96 38.7536 303.779 38.7791 303.626 38.8004C303.281 38.8473 302.972 38.924 302.699 39.0305C302.426 39.1371 302.211 39.2862 302.053 39.478C301.896 39.6655 301.817 39.9084 301.817 40.2067C301.817 40.6328 301.972 40.9545 302.284 41.1719C302.595 41.3892 302.991 41.4979 303.472 41.4979ZM315.285 33.1818V34.9716H309.641V33.1818H315.285ZM311.034 30.8295H313.348V40.0469C313.348 40.358 313.395 40.5966 313.489 40.7628C313.587 40.9247 313.715 41.0355 313.872 41.0952C314.03 41.1548 314.205 41.1847 314.396 41.1847C314.541 41.1847 314.673 41.174 314.793 41.1527C314.916 41.1314 315.01 41.1122 315.074 41.0952L315.464 42.9041C315.34 42.9467 315.164 42.9936 314.933 43.0447C314.708 43.0959 314.431 43.1257 314.102 43.1342C313.523 43.1513 313.001 43.0639 312.536 42.8722C312.072 42.6761 311.703 42.3736 311.431 41.9645C311.162 41.5554 311.03 41.044 311.034 40.4304V30.8295ZM321.461 43.1918C320.477 43.1918 319.627 42.9872 318.911 42.5781C318.199 42.1648 317.652 41.581 317.268 40.8267C316.885 40.0682 316.693 39.1754 316.693 38.1484C316.693 37.1385 316.885 36.2521 317.268 35.4893C317.656 34.7223 318.197 34.1257 318.892 33.6996C319.586 33.2692 320.402 33.054 321.34 33.054C321.945 33.054 322.516 33.152 323.053 33.348C323.594 33.5398 324.071 33.8381 324.485 34.2429C324.902 34.6477 325.23 35.1634 325.469 35.7898C325.708 36.4119 325.827 37.1534 325.827 38.0142V38.7237H317.779V37.1641H323.609C323.605 36.7209 323.509 36.3267 323.321 35.9815C323.134 35.6321 322.872 35.3572 322.535 35.157C322.203 34.9567 321.815 34.8565 321.372 34.8565C320.899 34.8565 320.483 34.9716 320.125 35.2017C319.767 35.4276 319.488 35.7259 319.288 36.0966C319.092 36.4631 318.992 36.8658 318.988 37.3047V38.6662C318.988 39.2372 319.092 39.7273 319.301 40.1364C319.51 40.5412 319.801 40.8523 320.176 41.0696C320.551 41.2827 320.99 41.3892 321.493 41.3892C321.83 41.3892 322.135 41.3423 322.407 41.2486C322.68 41.1506 322.917 41.0078 323.117 40.8203C323.317 40.6328 323.468 40.4006 323.571 40.1236L325.731 40.3665C325.595 40.9375 325.335 41.4361 324.951 41.8622C324.572 42.2841 324.086 42.6122 323.494 42.8466C322.902 43.0767 322.224 43.1918 321.461 43.1918ZM335.075 43.1982C334.453 43.1982 333.892 43.0874 333.394 42.8658C332.899 42.6399 332.507 42.3075 332.218 41.8686C331.932 41.4297 331.789 40.8885 331.789 40.245C331.789 39.6911 331.892 39.233 332.096 38.8707C332.301 38.5085 332.58 38.2188 332.933 38.0014C333.287 37.7841 333.686 37.62 334.129 37.5092C334.576 37.3942 335.039 37.3111 335.516 37.2599C336.091 37.2003 336.558 37.147 336.916 37.1001C337.274 37.049 337.534 36.9723 337.695 36.87C337.862 36.7635 337.945 36.5994 337.945 36.3778V36.3395C337.945 35.858 337.802 35.4851 337.517 35.2209C337.231 34.9567 336.82 34.8246 336.283 34.8246C335.716 34.8246 335.267 34.9482 334.934 35.1953C334.606 35.4425 334.384 35.7344 334.269 36.071L332.109 35.7642C332.279 35.1676 332.561 34.669 332.953 34.2685C333.345 33.8636 333.824 33.5611 334.391 33.3608C334.958 33.1562 335.584 33.054 336.27 33.054C336.743 33.054 337.214 33.1094 337.683 33.2202C338.151 33.331 338.58 33.5142 338.968 33.7699C339.355 34.0213 339.666 34.3643 339.901 34.799C340.139 35.2337 340.259 35.777 340.259 36.429V43H338.034V41.6513H337.958C337.817 41.924 337.619 42.1797 337.363 42.4183C337.112 42.6527 336.794 42.8423 336.411 42.9872C336.031 43.1278 335.586 43.1982 335.075 43.1982ZM335.676 41.4979C336.14 41.4979 336.543 41.4062 336.884 41.223C337.225 41.0355 337.487 40.7884 337.67 40.4815C337.857 40.1747 337.951 39.8402 337.951 39.478V38.321C337.879 38.3807 337.755 38.4361 337.58 38.4872C337.41 38.5384 337.218 38.5831 337.005 38.6214C336.792 38.6598 336.581 38.6939 336.372 38.7237C336.164 38.7536 335.982 38.7791 335.829 38.8004C335.484 38.8473 335.175 38.924 334.902 39.0305C334.629 39.1371 334.414 39.2862 334.257 39.478C334.099 39.6655 334.02 39.9084 334.02 40.2067C334.02 40.6328 334.176 40.9545 334.487 41.1719C334.798 41.3892 335.194 41.4979 335.676 41.4979ZM347.05 43V33.1818H349.294V34.8182H349.396C349.575 34.2514 349.882 33.8146 350.317 33.5078C350.756 33.1967 351.256 33.0412 351.819 33.0412C351.947 33.0412 352.089 33.0476 352.247 33.0604C352.409 33.0689 352.543 33.0838 352.65 33.1051V35.2337C352.552 35.1996 352.396 35.1697 352.183 35.1442C351.974 35.1143 351.772 35.0994 351.576 35.0994C351.154 35.0994 350.775 35.1911 350.438 35.3743C350.106 35.5533 349.844 35.8026 349.652 36.1222C349.46 36.4418 349.364 36.8104 349.364 37.228V43H347.05ZM358.129 43.1918C357.145 43.1918 356.295 42.9872 355.579 42.5781C354.867 42.1648 354.32 41.581 353.936 40.8267C353.553 40.0682 353.361 39.1754 353.361 38.1484C353.361 37.1385 353.553 36.2521 353.936 35.4893C354.324 34.7223 354.865 34.1257 355.56 33.6996C356.254 33.2692 357.07 33.054 358.008 33.054C358.613 33.054 359.184 33.152 359.721 33.348C360.262 33.5398 360.739 33.8381 361.153 34.2429C361.57 34.6477 361.898 35.1634 362.137 35.7898C362.376 36.4119 362.495 37.1534 362.495 38.0142V38.7237H354.447V37.1641H360.277C360.273 36.7209 360.177 36.3267 359.989 35.9815C359.802 35.6321 359.54 35.3572 359.203 35.157C358.871 34.9567 358.483 34.8565 358.04 34.8565C357.567 34.8565 357.151 34.9716 356.793 35.2017C356.435 35.4276 356.156 35.7259 355.956 36.0966C355.76 36.4631 355.66 36.8658 355.656 37.3047V38.6662C355.656 39.2372 355.76 39.7273 355.969 40.1364C356.178 40.5412 356.469 40.8523 356.844 41.0696C357.219 41.2827 357.658 41.3892 358.161 41.3892C358.498 41.3892 358.803 41.3423 359.075 41.2486C359.348 41.1506 359.585 41.0078 359.785 40.8203C359.985 40.6328 360.136 40.4006 360.239 40.1236L362.399 40.3665C362.263 40.9375 362.003 41.4361 361.619 41.8622C361.24 42.2841 360.754 42.6122 360.162 42.8466C359.57 43.0767 358.892 43.1918 358.129 43.1918ZM364.453 46.6818V33.1818H366.728V34.8054H366.862C366.982 34.5668 367.15 34.3132 367.367 34.0447C367.585 33.772 367.879 33.5398 368.249 33.348C368.62 33.152 369.093 33.054 369.669 33.054C370.427 33.054 371.111 33.2479 371.72 33.6357C372.334 34.0192 372.82 34.5881 373.178 35.3423C373.54 36.0923 373.721 37.0128 373.721 38.1037C373.721 39.1818 373.544 40.098 373.191 40.8523C372.837 41.6065 372.355 42.1818 371.746 42.5781C371.137 42.9744 370.446 43.1726 369.675 43.1726C369.112 43.1726 368.646 43.0788 368.275 42.8913C367.904 42.7038 367.606 42.478 367.38 42.2138C367.159 41.9453 366.986 41.6918 366.862 41.4531H366.767V46.6818H364.453ZM366.722 38.0909C366.722 38.7259 366.811 39.282 366.99 39.7592C367.173 40.2365 367.436 40.6094 367.776 40.8778C368.122 41.142 368.539 41.2741 369.029 41.2741C369.541 41.2741 369.969 41.1378 370.314 40.8651C370.659 40.5881 370.919 40.2109 371.094 39.7337C371.273 39.2521 371.362 38.7045 371.362 38.0909C371.362 37.4815 371.275 36.9403 371.1 36.4673C370.926 35.9943 370.666 35.6236 370.32 35.3551C369.975 35.0866 369.545 34.9524 369.029 34.9524C368.535 34.9524 368.115 35.0824 367.77 35.3423C367.425 35.6023 367.163 35.9666 366.984 36.4354C366.809 36.9041 366.722 37.456 366.722 38.0909ZM379.985 43.1918C379.026 43.1918 378.195 42.9808 377.492 42.5589C376.789 42.1371 376.244 41.5469 375.856 40.7884C375.472 40.0298 375.281 39.1435 375.281 38.1293C375.281 37.1151 375.472 36.2266 375.856 35.4638C376.244 34.701 376.789 34.1087 377.492 33.6868C378.195 33.2649 379.026 33.054 379.985 33.054C380.944 33.054 381.775 33.2649 382.478 33.6868C383.181 34.1087 383.725 34.701 384.108 35.4638C384.496 36.2266 384.69 37.1151 384.69 38.1293C384.69 39.1435 384.496 40.0298 384.108 40.7884C383.725 41.5469 383.181 42.1371 382.478 42.5589C381.775 42.9808 380.944 43.1918 379.985 43.1918ZM379.998 41.3381C380.518 41.3381 380.953 41.1953 381.302 40.9098C381.651 40.62 381.911 40.2322 382.082 39.7464C382.257 39.2607 382.344 38.7195 382.344 38.1229C382.344 37.522 382.257 36.9787 382.082 36.4929C381.911 36.0028 381.651 35.6129 381.302 35.3232C380.953 35.0334 380.518 34.8885 379.998 34.8885C379.465 34.8885 379.022 35.0334 378.669 35.3232C378.319 35.6129 378.057 36.0028 377.882 36.4929C377.712 36.9787 377.627 37.522 377.627 38.1229C377.627 38.7195 377.712 39.2607 377.882 39.7464C378.057 40.2322 378.319 40.62 378.669 40.9098C379.022 41.1953 379.465 41.3381 379.998 41.3381ZM386.654 43V33.1818H388.897V34.8182H389C389.179 34.2514 389.485 33.8146 389.92 33.5078C390.359 33.1967 390.86 33.0412 391.422 33.0412C391.55 33.0412 391.693 33.0476 391.85 33.0604C392.012 33.0689 392.147 33.0838 392.253 33.1051V35.2337C392.155 35.1996 392 35.1697 391.787 35.1442C391.578 35.1143 391.375 35.0994 391.179 35.0994C390.757 35.0994 390.378 35.1911 390.042 35.3743C389.709 35.5533 389.447 35.8026 389.255 36.1222C389.064 36.4418 388.968 36.8104 388.968 37.228V43H386.654ZM399.221 33.1818V34.9716H393.576V33.1818H399.221ZM394.97 30.8295H397.284V40.0469C397.284 40.358 397.331 40.5966 397.424 40.7628C397.522 40.9247 397.65 41.0355 397.808 41.0952C397.966 41.1548 398.14 41.1847 398.332 41.1847C398.477 41.1847 398.609 41.174 398.728 41.1527C398.852 41.1314 398.946 41.1122 399.01 41.0952L399.4 42.9041C399.276 42.9467 399.099 42.9936 398.869 43.0447C398.643 43.0959 398.366 43.1257 398.038 43.1342C397.458 43.1513 396.936 43.0639 396.472 42.8722C396.007 42.6761 395.639 42.3736 395.366 41.9645C395.098 41.5554 394.966 41.044 394.97 40.4304V30.8295Z" fill="#071139"/>
<path d="M468.496 34.326H466.106C466.038 33.9339 465.912 33.5866 465.729 33.2841C465.545 32.9773 465.317 32.7173 465.045 32.5043C464.772 32.2912 464.461 32.1314 464.112 32.0249C463.766 31.9141 463.393 31.8587 462.993 31.8587C462.281 31.8587 461.651 32.0376 461.101 32.3956C460.551 32.7493 460.121 33.2692 459.81 33.9553C459.499 34.6371 459.343 35.4702 459.343 36.4545C459.343 37.456 459.499 38.2997 459.81 38.9858C460.125 39.6676 460.555 40.1832 461.101 40.5327C461.651 40.8778 462.279 41.0504 462.987 41.0504C463.379 41.0504 463.745 40.9993 464.086 40.897C464.431 40.7905 464.74 40.6349 465.013 40.4304C465.29 40.2259 465.522 39.9744 465.71 39.6761C465.901 39.3778 466.033 39.0369 466.106 38.6534L468.496 38.6662C468.407 39.2884 468.213 39.8722 467.915 40.4176C467.621 40.9631 467.235 41.4446 466.758 41.8622C466.281 42.2756 465.722 42.5994 465.083 42.8338C464.444 43.0639 463.734 43.179 462.955 43.179C461.804 43.179 460.777 42.9126 459.874 42.38C458.97 41.8473 458.259 41.0781 457.739 40.0724C457.219 39.0668 456.959 37.8608 456.959 36.4545C456.959 35.044 457.221 33.8381 457.745 32.8366C458.269 31.831 458.983 31.0618 459.886 30.5291C460.79 29.9964 461.813 29.7301 462.955 29.7301C463.683 29.7301 464.361 29.8324 464.987 30.0369C465.614 30.2415 466.172 30.5419 466.662 30.9382C467.152 31.3303 467.555 31.8118 467.87 32.3828C468.19 32.9496 468.398 33.5973 468.496 34.326ZM472.88 37.2472V43H470.566V29.9091H472.829V34.8501H472.944C473.174 34.2962 473.53 33.8594 474.011 33.5398C474.497 33.2159 475.115 33.054 475.865 33.054C476.547 33.054 477.141 33.1967 477.648 33.4822C478.155 33.7678 478.547 34.1854 478.824 34.7351C479.106 35.2848 479.246 35.956 479.246 36.7486V43H476.932V37.1065C476.932 36.446 476.762 35.9325 476.421 35.5661C476.084 35.1953 475.611 35.0099 475.002 35.0099C474.593 35.0099 474.226 35.0994 473.903 35.2784C473.583 35.4531 473.331 35.7067 473.148 36.0391C472.969 36.3714 472.88 36.7741 472.88 37.2472ZM485.952 43.1918C484.967 43.1918 484.117 42.9872 483.401 42.5781C482.689 42.1648 482.142 41.581 481.758 40.8267C481.375 40.0682 481.183 39.1754 481.183 38.1484C481.183 37.1385 481.375 36.2521 481.758 35.4893C482.146 34.7223 482.687 34.1257 483.382 33.6996C484.077 33.2692 484.893 33.054 485.83 33.054C486.435 33.054 487.006 33.152 487.543 33.348C488.084 33.5398 488.562 33.8381 488.975 34.2429C489.393 34.6477 489.721 35.1634 489.959 35.7898C490.198 36.4119 490.317 37.1534 490.317 38.0142V38.7237H482.27V37.1641H488.099C488.095 36.7209 487.999 36.3267 487.812 35.9815C487.624 35.6321 487.362 35.3572 487.025 35.157C486.693 34.9567 486.305 34.8565 485.862 34.8565C485.389 34.8565 484.974 34.9716 484.616 35.2017C484.258 35.4276 483.979 35.7259 483.778 36.0966C483.582 36.4631 483.482 36.8658 483.478 37.3047V38.6662C483.478 39.2372 483.582 39.7273 483.791 40.1364C484 40.5412 484.292 40.8523 484.667 41.0696C485.042 41.2827 485.481 41.3892 485.983 41.3892C486.32 41.3892 486.625 41.3423 486.898 41.2486C487.17 41.1506 487.407 41.0078 487.607 40.8203C487.807 40.6328 487.959 40.4006 488.061 40.1236L490.221 40.3665C490.085 40.9375 489.825 41.4361 489.442 41.8622C489.062 42.2841 488.577 42.6122 487.984 42.8466C487.392 43.0767 486.714 43.1918 485.952 43.1918ZM496.558 43.1918C495.577 43.1918 494.736 42.9766 494.033 42.5462C493.334 42.1158 492.795 41.5213 492.415 40.7628C492.04 40 491.853 39.1222 491.853 38.1293C491.853 37.1321 492.045 36.2521 492.428 35.4893C492.812 34.7223 493.353 34.1257 494.052 33.6996C494.755 33.2692 495.586 33.054 496.545 33.054C497.342 33.054 498.047 33.201 498.661 33.495C499.278 33.7848 499.771 34.196 500.137 34.7287C500.504 35.2571 500.712 35.875 500.763 36.5824H498.552C498.462 36.1094 498.249 35.7152 497.913 35.3999C497.58 35.0803 497.135 34.9205 496.577 34.9205C496.104 34.9205 495.688 35.0483 495.33 35.304C494.972 35.5554 494.693 35.9176 494.493 36.3906C494.297 36.8636 494.199 37.4304 494.199 38.0909C494.199 38.7599 494.297 39.3352 494.493 39.8168C494.689 40.294 494.964 40.6626 495.317 40.9226C495.675 41.1783 496.095 41.3061 496.577 41.3061C496.918 41.3061 497.222 41.2422 497.491 41.1143C497.763 40.9822 497.991 40.7926 498.175 40.5455C498.358 40.2983 498.484 39.9979 498.552 39.6442H500.763C500.708 40.3388 500.504 40.9545 500.15 41.4915C499.796 42.0241 499.315 42.4418 498.705 42.7443C498.096 43.0426 497.38 43.1918 496.558 43.1918ZM504.773 39.919L504.767 37.1257H505.137L508.666 33.1818H511.369L507.029 38.0142H506.55L504.773 39.919ZM502.664 43V29.9091H504.977V43H502.664ZM508.825 43L505.629 38.532L507.189 36.902L511.593 43H508.825ZM517.479 43V29.9091H525.865V31.897H519.85V35.451H525.29V37.4389H519.85V43H517.479ZM531.549 43.1918C530.565 43.1918 529.715 42.9872 528.999 42.5781C528.287 42.1648 527.74 41.581 527.356 40.8267C526.972 40.0682 526.781 39.1754 526.781 38.1484C526.781 37.1385 526.972 36.2521 527.356 35.4893C527.744 34.7223 528.285 34.1257 528.98 33.6996C529.674 33.2692 530.49 33.054 531.428 33.054C532.033 33.054 532.604 33.152 533.141 33.348C533.682 33.5398 534.159 33.8381 534.573 34.2429C534.99 34.6477 535.318 35.1634 535.557 35.7898C535.796 36.4119 535.915 37.1534 535.915 38.0142V38.7237H527.867V37.1641H533.697C533.693 36.7209 533.597 36.3267 533.409 35.9815C533.222 35.6321 532.96 35.3572 532.623 35.157C532.291 34.9567 531.903 34.8565 531.46 34.8565C530.987 34.8565 530.571 34.9716 530.213 35.2017C529.855 35.4276 529.576 35.7259 529.376 36.0966C529.18 36.4631 529.08 36.8658 529.075 37.3047V38.6662C529.075 39.2372 529.18 39.7273 529.389 40.1364C529.597 40.5412 529.889 40.8523 530.264 41.0696C530.639 41.2827 531.078 41.3892 531.581 41.3892C531.918 41.3892 532.222 41.3423 532.495 41.2486C532.768 41.1506 533.004 41.0078 533.205 40.8203C533.405 40.6328 533.556 40.4006 533.659 40.1236L535.819 40.3665C535.683 40.9375 535.423 41.4361 535.039 41.8622C534.66 42.2841 534.174 42.6122 533.582 42.8466C532.99 43.0767 532.312 43.1918 531.549 43.1918ZM542.219 43.1918C541.235 43.1918 540.385 42.9872 539.669 42.5781C538.957 42.1648 538.409 41.581 538.026 40.8267C537.642 40.0682 537.451 39.1754 537.451 38.1484C537.451 37.1385 537.642 36.2521 538.026 35.4893C538.414 34.7223 538.955 34.1257 539.65 33.6996C540.344 33.2692 541.16 33.054 542.098 33.054C542.703 33.054 543.274 33.152 543.811 33.348C544.352 33.5398 544.829 33.8381 545.243 34.2429C545.66 34.6477 545.988 35.1634 546.227 35.7898C546.466 36.4119 546.585 37.1534 546.585 38.0142V38.7237H538.537V37.1641H544.367C544.363 36.7209 544.267 36.3267 544.079 35.9815C543.892 35.6321 543.63 35.3572 543.293 35.157C542.961 34.9567 542.573 34.8565 542.13 34.8565C541.657 34.8565 541.241 34.9716 540.883 35.2017C540.525 35.4276 540.246 35.7259 540.046 36.0966C539.85 36.4631 539.75 36.8658 539.745 37.3047V38.6662C539.745 39.2372 539.85 39.7273 540.059 40.1364C540.267 40.5412 540.559 40.8523 540.934 41.0696C541.309 41.2827 541.748 41.3892 542.251 41.3892C542.588 41.3892 542.892 41.3423 543.165 41.2486C543.438 41.1506 543.674 41.0078 543.875 40.8203C544.075 40.6328 544.226 40.4006 544.328 40.1236L546.489 40.3665C546.353 40.9375 546.093 41.4361 545.709 41.8622C545.33 42.2841 544.844 42.6122 544.252 42.8466C543.659 43.0767 542.982 43.1918 542.219 43.1918ZM552.186 43.1726C551.415 43.1726 550.724 42.9744 550.115 42.5781C549.506 42.1818 549.024 41.6065 548.67 40.8523C548.317 40.098 548.14 39.1818 548.14 38.1037C548.14 37.0128 548.319 36.0923 548.677 35.3423C549.039 34.5881 549.527 34.0192 550.14 33.6357C550.754 33.2479 551.438 33.054 552.192 33.054C552.768 33.054 553.241 33.152 553.611 33.348C553.982 33.5398 554.276 33.772 554.493 34.0447C554.711 34.3132 554.879 34.5668 554.998 34.8054H555.094V29.9091H557.415V43H555.139V41.4531H554.998C554.879 41.6918 554.706 41.9453 554.481 42.2138C554.255 42.478 553.956 42.7038 553.586 42.8913C553.215 43.0788 552.748 43.1726 552.186 43.1726ZM552.831 41.2741C553.322 41.2741 553.739 41.142 554.084 40.8778C554.43 40.6094 554.692 40.2365 554.871 39.7592C555.05 39.282 555.139 38.7259 555.139 38.0909C555.139 37.456 555.05 36.9041 554.871 36.4354C554.696 35.9666 554.436 35.6023 554.091 35.3423C553.75 35.0824 553.33 34.9524 552.831 34.9524C552.316 34.9524 551.885 35.0866 551.54 35.3551C551.195 35.6236 550.935 35.9943 550.76 36.4673C550.586 36.9403 550.498 37.4815 550.498 38.0909C550.498 38.7045 550.586 39.2521 550.76 39.7337C550.939 40.2109 551.202 40.5881 551.547 40.8651C551.896 41.1378 552.324 41.2741 552.831 41.2741ZM559.983 43V29.9091H562.297V34.8054H562.392C562.512 34.5668 562.68 34.3132 562.897 34.0447C563.115 33.772 563.409 33.5398 563.779 33.348C564.15 33.152 564.623 33.054 565.199 33.054C565.957 33.054 566.641 33.2479 567.25 33.6357C567.864 34.0192 568.35 34.5881 568.708 35.3423C569.07 36.0923 569.251 37.0128 569.251 38.1037C569.251 39.1818 569.074 40.098 568.721 40.8523C568.367 41.6065 567.885 42.1818 567.276 42.5781C566.667 42.9744 565.976 43.1726 565.205 43.1726C564.642 43.1726 564.176 43.0788 563.805 42.8913C563.434 42.7038 563.136 42.478 562.91 42.2138C562.689 41.9453 562.516 41.6918 562.392 41.4531H562.258V43H559.983ZM562.252 38.0909C562.252 38.7259 562.341 39.282 562.52 39.7592C562.703 40.2365 562.966 40.6094 563.306 40.8778C563.652 41.142 564.069 41.2741 564.559 41.2741C565.071 41.2741 565.499 41.1378 565.844 40.8651C566.189 40.5881 566.449 40.2109 566.624 39.7337C566.803 39.2521 566.892 38.7045 566.892 38.0909C566.892 37.4815 566.805 36.9403 566.63 36.4673C566.456 35.9943 566.196 35.6236 565.85 35.3551C565.505 35.0866 565.075 34.9524 564.559 34.9524C564.065 34.9524 563.645 35.0824 563.3 35.3423C562.955 35.6023 562.693 35.9666 562.514 36.4354C562.339 36.9041 562.252 37.456 562.252 38.0909ZM574.044 43.1982C573.421 43.1982 572.861 43.0874 572.362 42.8658C571.868 42.6399 571.476 42.3075 571.186 41.8686C570.901 41.4297 570.758 40.8885 570.758 40.245C570.758 39.6911 570.86 39.233 571.065 38.8707C571.269 38.5085 571.548 38.2188 571.902 38.0014C572.256 37.7841 572.654 37.62 573.097 37.5092C573.545 37.3942 574.007 37.3111 574.485 37.2599C575.06 37.2003 575.526 37.147 575.884 37.1001C576.242 37.049 576.502 36.9723 576.664 36.87C576.83 36.7635 576.914 36.5994 576.914 36.3778V36.3395C576.914 35.858 576.771 35.4851 576.485 35.2209C576.2 34.9567 575.789 34.8246 575.252 34.8246C574.685 34.8246 574.235 34.9482 573.903 35.1953C573.575 35.4425 573.353 35.7344 573.238 36.071L571.078 35.7642C571.248 35.1676 571.529 34.669 571.921 34.2685C572.313 33.8636 572.793 33.5611 573.36 33.3608C573.926 33.1562 574.553 33.054 575.239 33.054C575.712 33.054 576.183 33.1094 576.651 33.2202C577.12 33.331 577.548 33.5142 577.936 33.7699C578.324 34.0213 578.635 34.3643 578.869 34.799C579.108 35.2337 579.227 35.777 579.227 36.429V43H577.003V41.6513H576.926C576.786 41.924 576.588 42.1797 576.332 42.4183C576.08 42.6527 575.763 42.8423 575.379 42.9872C575 43.1278 574.555 43.1982 574.044 43.1982ZM574.644 41.4979C575.109 41.4979 575.512 41.4062 575.852 41.223C576.193 41.0355 576.455 40.7884 576.639 40.4815C576.826 40.1747 576.92 39.8402 576.92 39.478V38.321C576.847 38.3807 576.724 38.4361 576.549 38.4872C576.379 38.5384 576.187 38.5831 575.974 38.6214C575.761 38.6598 575.55 38.6939 575.341 38.7237C575.132 38.7536 574.951 38.7791 574.798 38.8004C574.453 38.8473 574.144 38.924 573.871 39.0305C573.598 39.1371 573.383 39.2862 573.225 39.478C573.068 39.6655 572.989 39.9084 572.989 40.2067C572.989 40.6328 573.144 40.9545 573.455 41.1719C573.767 41.3892 574.163 41.4979 574.644 41.4979ZM585.837 43.1918C584.857 43.1918 584.015 42.9766 583.312 42.5462C582.613 42.1158 582.074 41.5213 581.695 40.7628C581.32 40 581.132 39.1222 581.132 38.1293C581.132 37.1321 581.324 36.2521 581.708 35.4893C582.091 34.7223 582.632 34.1257 583.331 33.6996C584.034 33.2692 584.865 33.054 585.824 33.054C586.621 33.054 587.326 33.201 587.94 33.495C588.558 33.7848 589.05 34.196 589.416 34.7287C589.783 35.2571 589.992 35.875 590.043 36.5824H587.831C587.742 36.1094 587.529 35.7152 587.192 35.3999C586.86 35.0803 586.414 34.9205 585.856 34.9205C585.383 34.9205 584.968 35.0483 584.61 35.304C584.252 35.5554 583.972 35.9176 583.772 36.3906C583.576 36.8636 583.478 37.4304 583.478 38.0909C583.478 38.7599 583.576 39.3352 583.772 39.8168C583.968 40.294 584.243 40.6626 584.597 40.9226C584.955 41.1783 585.374 41.3061 585.856 41.3061C586.197 41.3061 586.502 41.2422 586.77 41.1143C587.043 40.9822 587.271 40.7926 587.454 40.5455C587.637 40.2983 587.763 39.9979 587.831 39.6442H590.043C589.987 40.3388 589.783 40.9545 589.429 41.4915C589.075 42.0241 588.594 42.4418 587.985 42.7443C587.375 43.0426 586.659 43.1918 585.837 43.1918ZM594.052 39.919L594.046 37.1257H594.417L597.945 33.1818H600.649L596.309 38.0142H595.829L594.052 39.919ZM591.943 43V29.9091H594.257V43H591.943ZM598.105 43L594.909 38.532L596.468 36.902L600.873 43H598.105ZM609.951 35.777L607.841 36.0071C607.782 35.794 607.677 35.5938 607.528 35.4062C607.383 35.2188 607.187 35.0675 606.94 34.9524C606.693 34.8374 606.39 34.7798 606.032 34.7798C605.551 34.7798 605.146 34.8842 604.818 35.093C604.494 35.3018 604.334 35.5724 604.339 35.9048C604.334 36.1903 604.439 36.4226 604.652 36.6016C604.869 36.7805 605.227 36.9276 605.726 37.0426L607.4 37.4006C608.329 37.6009 609.02 37.9183 609.471 38.353C609.927 38.7876 610.157 39.3565 610.162 40.0597C610.157 40.6776 609.976 41.223 609.618 41.696C609.265 42.1648 608.773 42.5312 608.142 42.7955C607.511 43.0597 606.787 43.1918 605.969 43.1918C604.767 43.1918 603.8 42.9403 603.067 42.4375C602.334 41.9304 601.897 41.2251 601.756 40.3217L604.013 40.1044C604.115 40.5476 604.332 40.8821 604.665 41.108C604.997 41.3338 605.43 41.4467 605.962 41.4467C606.512 41.4467 606.953 41.3338 607.285 41.108C607.622 40.8821 607.79 40.603 607.79 40.2706C607.79 39.9893 607.682 39.7571 607.464 39.5739C607.251 39.3906 606.919 39.25 606.467 39.152L604.792 38.8004C603.851 38.6044 603.154 38.2741 602.702 37.8097C602.251 37.3409 602.027 36.7486 602.031 36.0327C602.027 35.4276 602.191 34.9034 602.523 34.4602C602.86 34.0128 603.327 33.6676 603.923 33.4247C604.524 33.1776 605.216 33.054 606.001 33.054C607.151 33.054 608.057 33.299 608.717 33.7891C609.382 34.2791 609.793 34.9418 609.951 35.777Z" fill="#071139"/>
<path d="M675.716 31.897V29.9091H686.161V31.897H682.114V43H679.762V31.897H675.716ZM687.052 43V33.1818H689.296V34.8182H689.398C689.577 34.2514 689.884 33.8146 690.319 33.5078C690.757 33.1967 691.258 33.0412 691.821 33.0412C691.949 33.0412 692.091 33.0476 692.249 33.0604C692.411 33.0689 692.545 33.0838 692.652 33.1051V35.2337C692.554 35.1996 692.398 35.1697 692.185 35.1442C691.976 35.1143 691.774 35.0994 691.578 35.0994C691.156 35.0994 690.777 35.1911 690.44 35.3743C690.108 35.5533 689.846 35.8026 689.654 36.1222C689.462 36.4418 689.366 36.8104 689.366 37.228V43H687.052ZM696.838 43.1982C696.216 43.1982 695.656 43.0874 695.157 42.8658C694.663 42.6399 694.271 42.3075 693.981 41.8686C693.696 41.4297 693.553 40.8885 693.553 40.245C693.553 39.6911 693.655 39.233 693.86 38.8707C694.064 38.5085 694.343 38.2188 694.697 38.0014C695.051 37.7841 695.449 37.62 695.892 37.5092C696.34 37.3942 696.802 37.3111 697.279 37.2599C697.855 37.2003 698.321 37.147 698.679 37.1001C699.037 37.049 699.297 36.9723 699.459 36.87C699.625 36.7635 699.708 36.5994 699.708 36.3778V36.3395C699.708 35.858 699.566 35.4851 699.28 35.2209C698.995 34.9567 698.583 34.8246 698.047 34.8246C697.48 34.8246 697.03 34.9482 696.698 35.1953C696.37 35.4425 696.148 35.7344 696.033 36.071L693.873 35.7642C694.043 35.1676 694.324 34.669 694.716 34.2685C695.108 33.8636 695.588 33.5611 696.154 33.3608C696.721 33.1562 697.348 33.054 698.034 33.054C698.507 33.054 698.978 33.1094 699.446 33.2202C699.915 33.331 700.343 33.5142 700.731 33.7699C701.119 34.0213 701.43 34.3643 701.664 34.799C701.903 35.2337 702.022 35.777 702.022 36.429V43H699.798V41.6513H699.721C699.581 41.924 699.382 42.1797 699.127 42.4183C698.875 42.6527 698.558 42.8423 698.174 42.9872C697.795 43.1278 697.35 43.1982 696.838 43.1982ZM697.439 41.4979C697.904 41.4979 698.306 41.4062 698.647 41.223C698.988 41.0355 699.25 40.7884 699.434 40.4815C699.621 40.1747 699.715 39.8402 699.715 39.478V38.321C699.642 38.3807 699.519 38.4361 699.344 38.4872C699.174 38.5384 698.982 38.5831 698.769 38.6214C698.556 38.6598 698.345 38.6939 698.136 38.7237C697.927 38.7536 697.746 38.7791 697.593 38.8004C697.248 38.8473 696.939 38.924 696.666 39.0305C696.393 39.1371 696.178 39.2862 696.02 39.478C695.863 39.6655 695.784 39.9084 695.784 40.2067C695.784 40.6328 695.939 40.9545 696.25 41.1719C696.561 41.3892 696.958 41.4979 697.439 41.4979ZM708.632 43.1918C707.652 43.1918 706.81 42.9766 706.107 42.5462C705.408 42.1158 704.869 41.5213 704.49 40.7628C704.115 40 703.927 39.1222 703.927 38.1293C703.927 37.1321 704.119 36.2521 704.502 35.4893C704.886 34.7223 705.427 34.1257 706.126 33.6996C706.829 33.2692 707.66 33.054 708.619 33.054C709.416 33.054 710.121 33.201 710.735 33.495C711.353 33.7848 711.845 34.196 712.211 34.7287C712.578 35.2571 712.787 35.875 712.838 36.5824H710.626C710.537 36.1094 710.324 35.7152 709.987 35.3999C709.654 35.0803 709.209 34.9205 708.651 34.9205C708.178 34.9205 707.762 35.0483 707.404 35.304C707.047 35.5554 706.767 35.9176 706.567 36.3906C706.371 36.8636 706.273 37.4304 706.273 38.0909C706.273 38.7599 706.371 39.3352 706.567 39.8168C706.763 40.294 707.038 40.6626 707.392 40.9226C707.75 41.1783 708.169 41.3061 708.651 41.3061C708.992 41.3061 709.297 41.2422 709.565 41.1143C709.838 40.9822 710.066 40.7926 710.249 40.5455C710.432 40.2983 710.558 39.9979 710.626 39.6442H712.838C712.782 40.3388 712.578 40.9545 712.224 41.4915C711.87 42.0241 711.389 42.4418 710.779 42.7443C710.17 43.0426 709.454 43.1918 708.632 43.1918ZM716.847 39.919L716.841 37.1257H717.211L720.74 33.1818H723.444L719.104 38.0142H718.624L716.847 39.919ZM714.738 43V29.9091H717.052V43H714.738ZM720.9 43L717.704 38.532L719.263 36.902L723.667 43H720.9ZM729.553 43V29.9091H738.067V31.897H731.924V35.451H737.626V37.4389H731.924V41.0121H738.118V43H729.553ZM742.276 33.1818L744.258 36.8061L746.271 33.1818H748.719L745.76 38.0909L748.771 43H746.335L744.258 39.4652L742.2 43H739.745L742.737 38.0909L739.822 33.1818H742.276ZM750.509 46.6818V33.1818H752.785V34.8054H752.919C753.038 34.5668 753.207 34.3132 753.424 34.0447C753.641 33.772 753.935 33.5398 754.306 33.348C754.677 33.152 755.15 33.054 755.725 33.054C756.484 33.054 757.168 33.2479 757.777 33.6357C758.391 34.0192 758.876 34.5881 759.234 35.3423C759.597 36.0923 759.778 37.0128 759.778 38.1037C759.778 39.1818 759.601 40.098 759.247 40.8523C758.893 41.6065 758.412 42.1818 757.803 42.5781C757.193 42.9744 756.503 43.1726 755.732 43.1726C755.169 43.1726 754.702 43.0788 754.332 42.8913C753.961 42.7038 753.663 42.478 753.437 42.2138C753.215 41.9453 753.043 41.6918 752.919 41.4531H752.823V46.6818H750.509ZM752.778 38.0909C752.778 38.7259 752.868 39.282 753.047 39.7592C753.23 40.2365 753.492 40.6094 753.833 40.8778C754.178 41.142 754.596 41.2741 755.086 41.2741C755.597 41.2741 756.026 41.1378 756.371 40.8651C756.716 40.5881 756.976 40.2109 757.151 39.7337C757.33 39.2521 757.419 38.7045 757.419 38.0909C757.419 37.4815 757.332 36.9403 757.157 36.4673C756.982 35.9943 756.722 35.6236 756.377 35.3551C756.032 35.0866 755.602 34.9524 755.086 34.9524C754.592 34.9524 754.172 35.0824 753.827 35.3423C753.482 35.6023 753.219 35.9666 753.04 36.4354C752.866 36.9041 752.778 37.456 752.778 38.0909ZM764.585 43.1982C763.962 43.1982 763.402 43.0874 762.903 42.8658C762.409 42.6399 762.017 42.3075 761.727 41.8686C761.442 41.4297 761.299 40.8885 761.299 40.245C761.299 39.6911 761.401 39.233 761.606 38.8707C761.81 38.5085 762.089 38.2188 762.443 38.0014C762.797 37.7841 763.195 37.62 763.638 37.5092C764.086 37.3942 764.548 37.3111 765.026 37.2599C765.601 37.2003 766.067 37.147 766.425 37.1001C766.783 37.049 767.043 36.9723 767.205 36.87C767.371 36.7635 767.455 36.5994 767.455 36.3778V36.3395C767.455 35.858 767.312 35.4851 767.026 35.2209C766.741 34.9567 766.33 34.8246 765.793 34.8246C765.226 34.8246 764.776 34.9482 764.444 35.1953C764.116 35.4425 763.894 35.7344 763.779 36.071L761.619 35.7642C761.789 35.1676 762.07 34.669 762.462 34.2685C762.854 33.8636 763.334 33.5611 763.901 33.3608C764.467 33.1562 765.094 33.054 765.78 33.054C766.253 33.054 766.724 33.1094 767.192 33.2202C767.661 33.331 768.089 33.5142 768.477 33.7699C768.865 34.0213 769.176 34.3643 769.411 34.799C769.649 35.2337 769.768 35.777 769.768 36.429V43H767.544V41.6513H767.467C767.327 41.924 767.129 42.1797 766.873 42.4183C766.621 42.6527 766.304 42.8423 765.92 42.9872C765.541 43.1278 765.096 43.1982 764.585 43.1982ZM765.185 41.4979C765.65 41.4979 766.053 41.4062 766.393 41.223C766.734 41.0355 766.996 40.7884 767.18 40.4815C767.367 40.1747 767.461 39.8402 767.461 39.478V38.321C767.388 38.3807 767.265 38.4361 767.09 38.4872C766.92 38.5384 766.728 38.5831 766.515 38.6214C766.302 38.6598 766.091 38.6939 765.882 38.7237C765.673 38.7536 765.492 38.7791 765.339 38.8004C764.994 38.8473 764.685 38.924 764.412 39.0305C764.139 39.1371 763.924 39.2862 763.766 39.478C763.609 39.6655 763.53 39.9084 763.53 40.2067C763.53 40.6328 763.685 40.9545 763.996 41.1719C764.308 41.3892 764.704 41.4979 765.185 41.4979ZM774.409 37.2472V43H772.095V33.1818H774.307V34.8501H774.422C774.648 34.3004 775.008 33.8636 775.502 33.5398C776.001 33.2159 776.616 33.054 777.349 33.054C778.027 33.054 778.617 33.1989 779.12 33.4886C779.627 33.7784 780.019 34.1982 780.296 34.7479C780.577 35.2976 780.716 35.9645 780.712 36.7486V43H778.398V37.1065C778.398 36.4503 778.227 35.9368 777.886 35.5661C777.55 35.1953 777.083 35.0099 776.487 35.0099C776.082 35.0099 775.722 35.0994 775.406 35.2784C775.095 35.4531 774.85 35.7067 774.671 36.0391C774.496 36.3714 774.409 36.7741 774.409 37.2472ZM790.824 35.777L788.714 36.0071C788.655 35.794 788.55 35.5938 788.401 35.4062C788.256 35.2188 788.06 35.0675 787.813 34.9524C787.566 34.8374 787.263 34.7798 786.906 34.7798C786.424 34.7798 786.019 34.8842 785.691 35.093C785.367 35.3018 785.207 35.5724 785.212 35.9048C785.207 36.1903 785.312 36.4226 785.525 36.6016C785.742 36.7805 786.1 36.9276 786.599 37.0426L788.273 37.4006C789.202 37.6009 789.893 37.9183 790.344 38.353C790.8 38.7876 791.031 39.3565 791.035 40.0597C791.031 40.6776 790.849 41.223 790.491 41.696C790.138 42.1648 789.646 42.5312 789.015 42.7955C788.384 43.0597 787.66 43.1918 786.842 43.1918C785.64 43.1918 784.673 42.9403 783.94 42.4375C783.207 41.9304 782.77 41.2251 782.629 40.3217L784.886 40.1044C784.988 40.5476 785.205 40.8821 785.538 41.108C785.87 41.3338 786.303 41.4467 786.835 41.4467C787.385 41.4467 787.826 41.3338 788.158 41.108C788.495 40.8821 788.663 40.603 788.663 40.2706C788.663 39.9893 788.555 39.7571 788.337 39.5739C788.124 39.3906 787.792 39.25 787.34 39.152L785.665 38.8004C784.724 38.6044 784.027 38.2741 783.575 37.8097C783.124 37.3409 782.9 36.7486 782.904 36.0327C782.9 35.4276 783.064 34.9034 783.396 34.4602C783.733 34.0128 784.2 33.6676 784.796 33.4247C785.397 33.1776 786.089 33.054 786.874 33.054C788.024 33.054 788.93 33.299 789.59 33.7891C790.255 34.2791 790.666 34.9418 790.824 35.777ZM797.289 43.1918C796.305 43.1918 795.455 42.9872 794.739 42.5781C794.027 42.1648 793.48 41.581 793.096 40.8267C792.713 40.0682 792.521 39.1754 792.521 38.1484C792.521 37.1385 792.713 36.2521 793.096 35.4893C793.484 34.7223 794.025 34.1257 794.72 33.6996C795.414 33.2692 796.23 33.054 797.168 33.054C797.773 33.054 798.344 33.152 798.881 33.348C799.422 33.5398 799.9 33.8381 800.313 34.2429C800.73 34.6477 801.059 35.1634 801.297 35.7898C801.536 36.4119 801.655 37.1534 801.655 38.0142V38.7237H793.608V37.1641H799.437C799.433 36.7209 799.337 36.3267 799.15 35.9815C798.962 35.6321 798.7 35.3572 798.363 35.157C798.031 34.9567 797.643 34.8565 797.2 34.8565C796.727 34.8565 796.311 34.9716 795.953 35.2017C795.596 35.4276 795.316 35.7259 795.116 36.0966C794.92 36.4631 794.82 36.8658 794.816 37.3047V38.6662C794.816 39.2372 794.92 39.7273 795.129 40.1364C795.338 40.5412 795.63 40.8523 796.005 41.0696C796.38 41.2827 796.819 41.3892 797.321 41.3892C797.658 41.3892 797.963 41.3423 798.235 41.2486C798.508 41.1506 798.745 41.0078 798.945 40.8203C799.145 40.6328 799.297 40.4006 799.399 40.1236L801.559 40.3665C801.423 40.9375 801.163 41.4361 800.779 41.8622C800.4 42.2841 799.914 42.6122 799.322 42.8466C798.73 43.0767 798.052 43.1918 797.289 43.1918ZM811.373 35.777L809.263 36.0071C809.204 35.794 809.099 35.5938 808.95 35.4062C808.805 35.2188 808.609 35.0675 808.362 34.9524C808.115 34.8374 807.812 34.7798 807.454 34.7798C806.973 34.7798 806.568 34.8842 806.24 35.093C805.916 35.3018 805.756 35.5724 805.76 35.9048C805.756 36.1903 805.861 36.4226 806.074 36.6016C806.291 36.7805 806.649 36.9276 807.148 37.0426L808.822 37.4006C809.751 37.6009 810.442 37.9183 810.893 38.353C811.349 38.7876 811.579 39.3565 811.584 40.0597C811.579 40.6776 811.398 41.223 811.04 41.696C810.687 42.1648 810.194 42.5312 809.564 42.7955C808.933 43.0597 808.209 43.1918 807.39 43.1918C806.189 43.1918 805.221 42.9403 804.488 42.4375C803.756 41.9304 803.319 41.2251 803.178 40.3217L805.434 40.1044C805.537 40.5476 805.754 40.8821 806.086 41.108C806.419 41.3338 806.851 41.4467 807.384 41.4467C807.934 41.4467 808.375 41.3338 808.707 41.108C809.044 40.8821 809.212 40.603 809.212 40.2706C809.212 39.9893 809.104 39.7571 808.886 39.5739C808.673 39.3906 808.341 39.25 807.889 39.152L806.214 38.8004C805.273 38.6044 804.576 38.2741 804.124 37.8097C803.672 37.3409 803.449 36.7486 803.453 36.0327C803.449 35.4276 803.613 34.9034 803.945 34.4602C804.282 34.0128 804.748 33.6676 805.345 33.4247C805.946 33.1776 806.638 33.054 807.422 33.054C808.573 33.054 809.479 33.299 810.139 33.7891C810.804 34.2791 811.215 34.9418 811.373 35.777Z" fill="#071139"/>
<path d="M56.3604 37.4917C56.3624 37.7586 56.2813 38.0196 56.1283 38.2382C55.9753 38.4569 55.7579 38.6225 55.5065 38.7119L50.3476 40.5885L48.4724 45.7481C48.38 45.9972 48.2136 46.212 47.9955 46.3637C47.7775 46.5154 47.5182 46.5967 47.2526 46.5967C46.987 46.5967 46.7278 46.5154 46.5097 46.3637C46.2917 46.212 46.1253 45.9972 46.0328 45.7481L44.1576 40.5877L38.9987 38.7119C38.7497 38.6194 38.535 38.453 38.3833 38.2348C38.2317 38.0167 38.1504 37.7574 38.1504 37.4917C38.1504 37.226 38.2317 36.9667 38.3833 36.7486C38.535 36.5305 38.7497 36.364 38.9987 36.2716L44.1576 34.3958L46.0328 29.2353C46.1253 28.9862 46.2917 28.7714 46.5097 28.6197C46.7278 28.468 46.987 28.3867 47.2526 28.3867C47.5182 28.3867 47.7775 28.468 47.9955 28.6197C48.2136 28.7714 48.38 28.9862 48.4724 29.2353L50.3484 34.3958L55.5065 36.2716C55.7579 36.361 55.9753 36.5265 56.1283 36.7452C56.2813 36.9639 56.3624 37.2248 56.3604 37.4917Z" fill="white"/>
<defs>
<filter id="filter0_d_1_12" x="0" y="0" width="229" height="84" filterUnits="userSpaceOnUse" color-interpolation-filters="sRGB">
<feFlood flood-opacity="0" result="BackgroundImageFix"/>
<feColorMatrix in="SourceAlpha" type="matrix" values="0 0 0 0 0 0 0 0 0 0 0 0 0 0 0 0 0 0 127 0" result="hardAlpha"/>
<feOffset dy="4"/>
<feGaussianBlur stdDeviation="7"/>
<feComposite in2="hardAlpha" operator="out"/>
<feColorMatrix type="matrix" values="0 0 0 0 0.0744792 0 0 0 0 0.15125 0 0 0 0 0.458333 0 0 0 0.25 0"/>
<feBlend mode="normal" in2="BackgroundImageFix" result="effect1_dropShadow_1_12"/>
<feBlend mode="normal" in="SourceGraphic" in2="effect1_dropShadow_1_12" result="shape"/>
</filter>
<filter id="filter1_d_1_12" x="209" y="0" width="229" height="84" filterUnits="userSpaceOnUse" color-interpolation-filters="sRGB">
<feFlood flood-opacity="0" result="BackgroundImageFix"/>
<feColorMatrix in="SourceAlpha" type="matrix" values="0 0 0 0 0 0 0 0 0 0 0 0 0 0 0 0 0 0 127 0" result="hardAlpha"/>
<feOffset dy="4"/>
<feGaussianBlur stdDeviation="7"/>
<feComposite in2="hardAlpha" operator="out"/>
<feColorMatrix type="matrix" values="0 0 0 0 0.0744792 0 0 0 0 0.15125 0 0 0 0 0.458333 0 0 0 0.25 0"/>
<feBlend mode="normal" in2="BackgroundImageFix" result="effect1_dropShadow_1_12"/>
<feBlend mode="normal" in="SourceGraphic" in2="effect1_dropShadow_1_12" result="shape"/>
</filter>
<filter id="filter2_d_1_12" x="418" y="0" width="229" height="84" filterUnits="userSpaceOnUse" color-interpolation-filters="sRGB">
<feFlood flood-opacity="0" result="BackgroundImageFix"/>
<feColorMatrix in="SourceAlpha" type="matrix" values="0 0 0 0 0 0 0 0 0 0 0 0 0 0 0 0 0 0 127 0" result="hardAlpha"/>
<feOffset dy="4"/>
<feGaussianBlur stdDeviation="7"/>
<feComposite in2="hardAlpha" operator="out"/>
<feColorMatrix type="matrix" values="0 0 0 0 0.0744792 0 0 0 0 0.15125 0 0 0 0 0.458333 0 0 0 0.25 0"/>
<feBlend mode="normal" in2="BackgroundImageFix" result="effect1_dropShadow_1_12"/>
<feBlend mode="normal" in="SourceGraphic" in2="effect1_dropShadow_1_12" result="shape"/>
</filter>
<filter id="filter3_d_1_12" x="627" y="0" width="229" height="84" filterUnits="userSpaceOnUse" color-interpolation-filters="sRGB">
<feFlood flood-opacity="0" result="BackgroundImageFix"/>
<feColorMatrix in="SourceAlpha" type="matrix" values="0 0 0 0 0 0 0 0 0 0 0 0 0 0 0 0 0 0 127 0" result="hardAlpha"/>
<feOffset dy="4"/>
<feGaussianBlur stdDeviation="7"/>
<feComposite in2="hardAlpha" operator="out"/>
<feColorMatrix type="matrix" values="0 0 0 0 0.0744792 0 0 0 0 0.15125 0 0 0 0 0.458333 0 0 0 0.25 0"/>
<feBlend mode="normal" in2="BackgroundImageFix" result="effect1_dropShadow_1_12"/>
<feBlend mode="normal" in="SourceGraphic" in2="effect1_dropShadow_1_12" result="shape"/>
</filter>
<linearGradient id="paint0_linear_1_12" x1="0.5" y1="66" x2="215" y2="9.99999" gradientUnits="userSpaceOnUse">
<stop stop-color="#071139"/>
<stop offset="0.507117" stop-color="#142F9F"/>
<stop offset="0.965" stop-color="#1FC274"/>
</linearGradient>
<linearGradient id="paint1_linear_1_12" x1="223" y1="38" x2="424" y2="38" gradientUnits="userSpaceOnUse">
<stop stop-color="#142F9F"/>
<stop offset="1" stop-color="#1FC274"/>
</linearGradient>
<linearGradient id="paint2_linear_1_12" x1="432" y1="38" x2="633" y2="38" gradientUnits="userSpaceOnUse">
<stop stop-color="#142F9F"/>
<stop offset="1" stop-color="#1FC274"/>
</linearGradient>
<linearGradient id="paint3_linear_1_12" x1="641" y1="38" x2="842" y2="38" gradientUnits="userSpaceOnUse">
<stop stop-color="#142F9F"/>
<stop offset="1" stop-color="#1FC274"/>
</linearGradient>
</defs>
</svg>
