<svg width="48" height="49" viewBox="0 0 48 49" fill="none" xmlns="http://www.w3.org/2000/svg">
<circle cx="23.888" cy="24.4317" r="23.6321" fill="#1FC274"/>
<path d="M23.8885 12.6157C20.7927 12.6157 18.2759 15.1325 18.2759 18.2284C18.2759 21.2651 20.6509 23.7228 23.7467 23.8292C23.8412 23.8173 23.9358 23.8173 24.0067 23.8292C24.0303 23.8292 24.0421 23.8292 24.0657 23.8292C24.0776 23.8292 24.0776 23.8292 24.0894 23.8292C27.1143 23.7228 29.4893 21.2651 29.5011 18.2284C29.5011 15.1325 26.9843 12.6157 23.8885 12.6157Z" fill="white"/>
<path d="M29.8909 26.9723C26.5942 24.7745 21.2179 24.7745 17.8976 26.9723C16.3969 27.9767 15.5698 29.3355 15.5698 30.7889C15.5698 32.2423 16.3969 33.5893 17.8858 34.5819C19.54 35.6926 21.7142 36.2479 23.8883 36.2479C26.0625 36.2479 28.2366 35.6926 29.8909 34.5819C31.3797 33.5775 32.2068 32.2305 32.2068 30.7653C32.195 29.3119 31.3797 27.9649 29.8909 26.9723Z" fill="white"/>
</svg>
