<svg width="5" height="14" viewBox="0 0 5 14" fill="none" xmlns="http://www.w3.org/2000/svg">
<path d="M0.756 2.884C0.636 2.332 0.612 1.882 0.684 1.534C0.768 1.186 0.912 0.916 1.116 0.723999C1.32 0.532 1.56 0.399999 1.836 0.327999C2.124 0.255999 2.412 0.219999 2.7 0.219999C2.976 0.219999 3.252 0.255999 3.528 0.327999C3.804 0.399999 4.044 0.532 4.248 0.723999C4.452 0.916 4.59 1.186 4.662 1.534C4.746 1.882 4.728 2.332 4.608 2.884L3.15 9.562C3.09 9.802 2.94 9.922 2.7 9.922C2.448 9.922 2.292 9.802 2.232 9.562L0.756 2.884ZM2.682 10.66C3.138 10.66 3.492 10.78 3.744 11.02C4.008 11.248 4.14 11.548 4.14 11.92C4.14 12.292 4.008 12.598 3.744 12.838C3.492 13.066 3.138 13.18 2.682 13.18C2.226 13.18 1.866 13.066 1.602 12.838C1.35 12.598 1.224 12.292 1.224 11.92C1.224 11.548 1.35 11.248 1.602 11.02C1.866 10.78 2.226 10.66 2.682 10.66Z" fill="#E74545"/>
</svg>
