<svg width="353" height="97" viewBox="0 0 353 97" fill="none" xmlns="http://www.w3.org/2000/svg">
<path d="M35 62C35 53.7157 41.7157 47 50 47H67V96H35V62Z" fill="#1FC274"/>
<path d="M32 62C32 53.7157 25.2843 47 17 47H0V96H32V62Z" fill="#071139"/>
<path d="M32 29C32 37.2843 25.2843 44 17 44H0V15C0 6.71573 6.71573 0 15 0H32V29Z" fill="#071139"/>
<path d="M35 29C35 37.2843 41.7157 44 50 44H67V15C67 6.71573 60.2843 0 52 0H35V29Z" fill="#071139"/>
<path d="M103.286 95V96H104.286H116.565H117.565V95V49.0007H124.065H125.065V48.0007V35.7531V34.7531H124.065H117.649C118.03 30.9403 119.122 27.9872 120.854 25.819L120.856 25.817C123.237 22.8206 126.9 21.2475 132.049 21.2475H133.049V20.2475V8.0603V7.0603H132.049C123.722 7.0603 116.901 9.63112 111.685 14.8336L111.682 14.8364C106.667 19.8793 103.927 26.5478 103.399 34.7531H96H95V35.7531V48.0007V49.0007H96H103.286V95ZM136.493 95V96H137.493H149.771H150.771V95V35.7531V34.7531H149.771H137.493H136.493V35.7531V95ZM180.199 57.4461C179.001 57.2918 178.01 57.0644 177.211 56.7749C176.112 56.3728 175.376 55.8699 174.918 55.3136C174.473 54.7731 174.239 54.1231 174.239 53.31C174.239 52.4968 174.473 51.8468 174.918 51.3063C175.376 50.7501 176.112 50.2471 177.211 49.845C178.01 49.5555 179.001 49.3281 180.199 49.1738C181.12 49.0591 182.126 49.0007 183.219 49.0007C184.271 49.0007 185.258 49.059 186.18 49.174L186.192 49.1755L186.204 49.1767C187.343 49.2903 188.293 49.5141 189.071 49.8315L189.093 49.8403L189.114 49.848C190.2 50.2333 190.938 50.7134 191.407 51.2432C191.863 51.7571 192.108 52.3644 192.139 53.1104L192.183 54.1473L193.217 54.0655L205.435 53.1002L206.425 53.022L206.354 52.0312C206.013 47.3101 204.081 43.366 200.577 40.2543L200.576 40.2534C196.384 36.5417 190.552 34.7531 183.219 34.7531C175.518 34.7531 169.485 36.7058 165.287 40.7648C161.779 44.1362 160.021 48.3404 160.021 53.31C160.021 58.2422 161.781 62.4435 165.283 65.8519L165.286 65.8541C169.484 69.9138 175.517 71.8668 183.219 71.8668C184.396 71.8668 185.486 71.9255 186.492 72.0412C187.797 72.1946 188.897 72.4592 189.804 72.8213L189.814 72.8253L189.824 72.8291C190.998 73.2682 191.793 73.8267 192.294 74.4591C192.785 75.0785 193.046 75.8338 193.046 76.7794C193.046 77.7249 192.785 78.4878 192.29 79.1195C191.786 79.7641 190.987 80.3369 189.812 80.7949L189.804 80.7979C188.896 81.1602 187.796 81.4249 186.49 81.5782C185.485 81.6938 184.395 81.7524 183.219 81.7524C182.043 81.7524 180.953 81.6938 179.948 81.5782C178.642 81.4249 177.542 81.1602 176.634 80.7979L176.624 80.7939L176.614 80.7901C175.439 80.3509 174.636 79.7911 174.124 79.1542C173.622 78.5296 173.348 77.7693 173.332 76.8222L173.313 75.7591L172.253 75.8429L160.035 76.8082L159.057 76.8855L159.116 77.865C159.413 82.8269 161.382 86.9577 165.013 90.1956L165.013 90.196C169.406 94.11 175.521 96 183.219 96C191.205 96 197.477 93.9655 201.875 89.7489L201.876 89.7476C205.505 86.256 207.324 81.9111 207.324 76.7794C207.324 71.6854 205.503 67.3615 201.876 63.8716L201.875 63.8704C197.477 59.6537 191.205 57.6192 183.219 57.6192C182.126 57.6192 181.12 57.5608 180.199 57.4461ZM259.4 91.9357L259.404 91.9336C263.896 89.2116 267.275 85.3757 269.532 80.4544L269.951 79.5429L269.038 79.1273L257.909 74.0594L257.001 73.646L256.585 74.5527C255.476 76.9731 253.874 78.7521 251.784 79.9367C249.684 81.1275 247.027 81.7524 243.764 81.7524C238.238 81.7524 234.399 79.9574 232.012 76.5207C230.222 73.8004 229.28 70.1145 229.28 65.3765C229.28 60.6385 230.222 56.9525 232.012 54.2322C234.399 50.7956 238.238 49.0007 243.764 49.0007C247.008 49.0007 249.651 49.616 251.743 50.7885C253.824 51.9548 255.419 53.7053 256.527 56.0851L256.948 56.988L257.852 56.5712L268.982 51.4429L269.891 51.0237L269.471 50.1147C267.211 45.2303 263.808 41.4346 259.275 38.7546C254.786 36.077 249.605 34.7531 243.764 34.7531C235.104 34.7531 228.09 37.5327 222.833 43.1532C217.581 48.728 215.002 56.1732 215.002 65.3765C215.002 74.5798 217.581 82.025 222.833 87.5998C228.09 93.2203 235.104 96 243.764 96C249.648 96 254.871 94.6549 259.4 91.9357ZM143.662 29.2718C145.784 29.2718 147.613 28.5012 149.091 26.9834C150.603 25.4728 151.376 23.6326 151.376 21.5145C151.376 19.394 150.601 17.5518 149.086 16.0402C147.605 14.5625 145.776 13.8176 143.662 13.8176C141.514 13.8176 139.663 14.558 138.177 16.0402C136.662 17.5518 135.888 19.394 135.888 21.5145C135.888 23.6326 136.66 25.4729 138.172 26.9834C139.655 28.5059 141.507 29.2718 143.662 29.2718Z" fill="#071139" stroke="#071139" stroke-width="2"/>
<path d="M333.391 96H334.786L334.338 94.6787L312.498 30.3163C311.586 27.6293 309.433 25.5473 306.717 24.7256C305.057 24.2234 303.286 24.2232 301.626 24.7255C298.909 25.5474 296.757 27.6306 295.847 30.3188L274.053 94.6793L273.606 96H275H285.353H286.066L286.298 95.3257L292.742 76.6176H315.649L322.093 95.3257L322.325 96H323.038H333.391ZM340.179 95V96H341.179H351H352V95V29.9102C352 26.6461 349.354 24 346.09 24C342.826 24 340.179 26.6461 340.179 29.9102V95ZM296.766 64.805L304.174 43.1852L311.622 64.805H296.766Z" fill="#1FC274" stroke="#1FC274" stroke-width="2"/>
</svg>
