<svg width="140" height="38" viewBox="0 0 140 38" fill="none" xmlns="http://www.w3.org/2000/svg">
<path d="M13.916 24.9169C13.916 21.2769 16.8668 18.3262 20.5067 18.3262H26.6442V37.8162H13.916V24.9169Z" fill="white"/>
<path d="M13.1211 24.9169C13.1211 21.2769 10.1703 18.3262 6.53037 18.3262H0.392902V37.8162H13.1211V24.9169Z" fill="white"/>
<path d="M13.1211 10.9398C13.1211 14.5797 10.1703 17.5305 6.53037 17.5305H0.392902V6.61998C0.392902 2.98002 3.34367 0.0292549 6.98363 0.0292549H13.1211V10.9398Z" fill="white"/>
<circle cx="21.0757" cy="5.99564" r="5.96634" fill="#1FC274"/>
<path d="M41.8731 37.8161V19.1219H38.5771V14.2503H41.8972C42.0415 10.8906 43.1081 8.21089 45.0969 6.21107C47.0857 4.22726 49.692 3.23535 52.9158 3.23535V8.0829C50.7827 8.0829 49.1948 8.73884 48.1523 10.0507C47.3343 11.0746 46.8692 12.4745 46.7569 14.2503H49.7401V19.1219H46.7569V37.8161H41.8731Z" fill="white"/>
<path d="M55.0811 37.8161V14.2503H59.9649V37.8161H55.0811ZM59.4115 10.4827C58.8983 11.0106 58.2728 11.2746 57.535 11.2746C56.7812 11.2746 56.1476 11.0106 55.6344 10.4827C55.1051 9.95472 54.8405 9.32278 54.8405 8.58685C54.8405 7.85092 55.1051 7.21898 55.6344 6.69103C56.1476 6.17908 56.7812 5.9231 57.535 5.9231C58.2728 5.9231 58.8983 6.17908 59.4115 6.69103C59.9408 7.21898 60.2054 7.85092 60.2054 8.58685C60.2054 9.32278 59.9408 9.95472 59.4115 10.4827Z" fill="white"/>
<path d="M71.9218 32.8726C72.3388 32.9206 72.7879 32.9446 73.269 32.9446C73.7502 32.9446 74.1993 32.9206 74.6163 32.8726C75.1616 32.8086 75.6348 32.6966 76.0357 32.5366C77.0622 32.1367 77.5755 31.4807 77.5755 30.5688C77.5755 29.6569 77.0622 29.0089 76.0357 28.625C75.6348 28.465 75.1616 28.353 74.6163 28.289C74.1993 28.241 73.7502 28.217 73.269 28.217C70.2698 28.217 67.9843 27.4571 66.4125 25.9372C65.0973 24.6574 64.4397 23.0895 64.4397 21.2337C64.4397 19.3618 65.0973 17.794 66.4125 16.5301C67.9843 15.0103 70.2698 14.2503 73.269 14.2503C76.1239 14.2503 78.3373 14.9463 79.9091 16.3381C81.2243 17.506 81.946 18.9779 82.0743 20.7537L77.2146 21.1377C77.1825 20.3698 76.6933 19.8178 75.747 19.4818C75.3942 19.3378 74.9772 19.2419 74.496 19.1939C74.1111 19.1459 73.7021 19.1219 73.269 19.1219C72.82 19.1219 72.4029 19.1459 72.018 19.1939C71.5208 19.2579 71.0958 19.3538 70.7429 19.4818C69.7806 19.8338 69.2994 20.4177 69.2994 21.2337C69.2994 22.0496 69.7806 22.6335 70.7429 22.9855C71.0958 23.1135 71.5208 23.2095 72.018 23.2735C72.4029 23.3215 72.82 23.3455 73.269 23.3455C76.3806 23.3455 78.7623 24.1374 80.4143 25.7213C81.7776 27.0331 82.4593 28.649 82.4593 30.5688C82.4593 32.5046 81.7776 34.1285 80.4143 35.4403C78.7623 37.0242 76.3806 37.8161 73.269 37.8161C70.2698 37.8161 67.9442 37.0802 66.2922 35.6083C64.9289 34.3924 64.1911 32.8486 64.0788 30.9768L68.9386 30.5928C68.9546 31.5047 69.4759 32.1527 70.5023 32.5366C70.9033 32.6966 71.3765 32.8086 71.9218 32.8726Z" fill="white"/>
<path d="M103.366 36.2563C101.634 37.2962 99.6288 37.8161 97.3513 37.8161C93.9992 37.8161 91.3207 36.7442 89.3158 34.6004C87.311 32.4726 86.3086 29.6169 86.3086 26.0332C86.3086 22.4496 87.311 19.5938 89.3158 17.466C91.3207 15.3222 93.9992 14.2503 97.3513 14.2503C99.6127 14.2503 101.602 14.7623 103.318 15.7862C105.05 16.8101 106.349 18.2579 107.215 20.1298L102.788 22.1696C101.842 20.1378 100.03 19.1219 97.3513 19.1219C95.0577 19.1219 93.3897 19.8738 92.3472 21.3777C91.5773 22.5455 91.1924 24.0974 91.1924 26.0332C91.1924 27.969 91.5773 29.5209 92.3472 30.6888C93.3897 32.1927 95.0577 32.9446 97.3513 32.9446C100.046 32.9446 101.866 31.9127 102.812 29.8489L107.239 31.8647C106.373 33.7525 105.082 35.2164 103.366 36.2563Z" fill="white"/>
<path d="M122.276 10.2449C123.233 10.5346 123.992 11.2686 124.314 12.2158L133.001 37.8163H128.883L126.227 30.1069H116.549L113.893 37.8163H109.775L118.444 12.2166C118.765 11.269 119.524 10.5346 120.481 10.2449C121.066 10.0679 121.691 10.0679 122.276 10.2449ZM117.876 26.2038H124.9L121.378 15.9825L117.876 26.2038Z" fill="#1FC274"/>
<path d="M136.099 37.8163V11.9265C136.099 10.8478 136.973 9.97339 138.052 9.97339C139.13 9.97339 140.005 10.8478 140.005 11.9265V37.8163H136.099Z" fill="#1FC274"/>
</svg>
