<svg width="271" height="112" viewBox="0 0 271 112" fill="none" xmlns="http://www.w3.org/2000/svg">
<path d="M20.0514 38.2394C20.0514 32.1029 25.026 27.1283 31.1625 27.1283H38.9232V56.0258H20.0514V38.2394Z" fill="#1FC274"/>
<path d="M18.8717 38.2394C18.8717 32.1029 13.8971 27.1283 7.76061 27.1283H-7.43866e-05V56.0258H18.8717V38.2394Z" fill="white"/>
<path d="M18.8717 14.8378C18.8717 20.9743 13.8971 25.9489 7.76061 25.9489H-7.43866e-05V11.1112C-7.43866e-05 4.97475 4.97454 0.000141144 11.111 0.000141144H18.8717V14.8378Z" fill="white"/>
<path d="M39.5129 8.84615C39.5129 13.7318 35.5523 17.6923 30.6667 17.6923C25.7811 17.6923 21.8206 13.7318 21.8206 8.84615C21.8206 6.58049 21.8206 2.0641 21.8206 9.34349e-06C23.8847 -2.46139e-06 28.0468 2.74413e-07 30.6667 2.74413e-07C35.5523 2.74413e-07 39.5129 3.96056 39.5129 8.84615Z" fill="white"/>
<path d="M61.5022 56.0257V28.3082H56.6154V21.0852H61.5379C61.7519 16.1039 63.3333 12.1307 66.2821 9.16564C69.2308 6.22428 73.0951 4.7536 77.875 4.7536V11.9409C74.7122 11.9409 72.3579 12.9135 70.8122 14.8586C69.5994 16.3767 68.9098 18.4523 68.7433 21.0852H73.1665V28.3082H68.7433V56.0257H61.5022Z" fill="white"/>
<path d="M81.0853 56.0257V21.0852H88.3264V56.0257H81.0853ZM87.506 15.499C86.7451 16.2818 85.8176 16.6732 84.7237 16.6732C83.606 16.6732 82.6667 16.2818 81.9058 15.499C81.121 14.7163 80.7286 13.7793 80.7286 12.6881C80.7286 11.597 81.121 10.66 81.9058 9.87725C82.6667 9.11819 83.606 8.73866 84.7237 8.73866C85.8176 8.73866 86.7451 9.11819 87.506 9.87725C88.2908 10.66 88.6831 11.597 88.6831 12.6881C88.6831 13.7793 88.2908 14.7163 87.506 15.499Z" fill="white"/>
<path d="M106.055 48.696C106.673 48.7672 107.339 48.8028 108.052 48.8028C108.766 48.8028 109.431 48.7672 110.05 48.696C110.858 48.6012 111.56 48.4351 112.154 48.1979C113.676 47.6049 114.437 46.6323 114.437 45.2803C114.437 43.9282 113.676 42.9675 112.154 42.3982C111.56 42.161 110.858 41.995 110.05 41.9001C109.431 41.8289 108.766 41.7933 108.052 41.7933C103.605 41.7933 100.217 40.6666 97.8861 38.4132C95.9361 36.5155 94.9612 34.1909 94.9612 31.4393C94.9612 28.664 95.9361 26.3394 97.8861 24.4654C100.217 22.212 103.605 21.0852 108.052 21.0852C112.285 21.0852 115.567 22.1171 117.897 24.1808C119.847 25.9124 120.917 28.0947 121.108 30.7277L113.902 31.297C113.855 30.1584 113.129 29.34 111.726 28.8419C111.203 28.6284 110.585 28.4861 109.871 28.4149C109.301 28.3438 108.694 28.3082 108.052 28.3082C107.386 28.3082 106.768 28.3438 106.197 28.4149C105.46 28.5098 104.83 28.6521 104.307 28.8419C102.88 29.3637 102.167 30.2295 102.167 31.4393C102.167 32.649 102.88 33.5148 104.307 34.0367C104.83 34.2265 105.46 34.3688 106.197 34.4637C106.768 34.5348 107.386 34.5704 108.052 34.5704C112.666 34.5704 116.197 35.7446 118.646 38.0929C120.668 40.038 121.678 42.4338 121.678 45.2803C121.678 48.1505 120.668 50.5581 118.646 52.5032C116.197 54.8515 112.666 56.0257 108.052 56.0257C103.605 56.0257 100.157 54.9346 97.7078 52.7523C95.6865 50.9495 94.5926 48.6605 94.4261 45.8851L101.632 45.3159C101.655 46.6679 102.428 47.6286 103.95 48.1979C104.545 48.4351 105.246 48.6012 106.055 48.696Z" fill="white"/>
<path d="M152.676 53.7129C150.108 55.2548 147.135 56.0257 143.758 56.0257C138.788 56.0257 134.817 54.4364 131.844 51.2579C128.872 48.103 127.386 43.8689 127.386 38.5555C127.386 33.2421 128.872 29.0079 131.844 25.8531C134.817 22.6745 138.788 21.0852 143.758 21.0852C147.111 21.0852 150.06 21.8443 152.605 23.3624C155.173 24.8805 157.099 27.0273 158.383 29.8026L151.82 32.8269C150.417 29.8144 147.73 28.3082 143.758 28.3082C140.358 28.3082 137.885 29.423 136.339 31.6528C135.197 33.3844 134.627 35.6853 134.627 38.5555C134.627 41.4257 135.197 43.7266 136.339 45.4582C137.885 47.6879 140.358 48.8028 143.758 48.8028C147.754 48.8028 150.453 47.2728 151.856 44.2128L158.419 47.2016C157.135 50.0007 155.221 52.1711 152.676 53.7129Z" fill="white"/>
<path d="M180.714 15.1463C182.133 15.5758 183.258 16.664 183.735 18.0684L196.615 56.0257H190.51L186.572 44.595H172.222L168.285 56.0257H162.179L175.032 18.0695C175.508 16.6645 176.633 15.5758 178.053 15.1462V15.1462C178.92 14.8837 179.846 14.8838 180.714 15.1463V15.1463ZM174.191 38.8081H184.604L179.383 23.6532L174.191 38.8081Z" fill="#1FC274"/>
<path d="M201.208 56.0257V17.6394C201.208 16.0401 202.505 14.7436 204.104 14.7436V14.7436C205.703 14.7436 207 16.0401 207 17.6394V56.0257H201.208Z" fill="#1FC274"/>
<path d="M14.7235 82.9872H17.5252L10.5064 93.5666V104H8.18623V93.552H8.20082L1.16738 82.9872H3.96908L9.3536 91.0859L14.7235 82.9872ZM17.9192 93.479C17.1993 94.2865 16.8394 95.449 16.8394 96.9666C16.8394 98.4841 17.1993 99.6467 17.9192 100.454C18.6488 101.262 19.6946 101.665 21.0566 101.665C22.4185 101.665 23.4643 101.262 24.1939 100.454C24.9138 99.6467 25.2737 98.4841 25.2737 96.9666C25.2737 95.449 24.9138 94.2865 24.1939 93.479C23.4643 92.6716 22.4185 92.2679 21.0566 92.2679C19.6946 92.2679 18.6488 92.6716 17.9192 93.479ZM25.8282 91.8447C27.015 93.1288 27.6085 94.8361 27.6085 96.9666C27.6085 99.1067 27.015 100.814 25.8282 102.088C24.6414 103.363 23.0508 104 21.0566 104C19.0623 104 17.4717 103.363 16.2849 102.088C15.0981 100.814 14.5047 99.1067 14.5047 96.9666C14.5047 94.8361 15.0981 93.1288 16.2849 91.8447C17.4717 90.5703 19.0623 89.9331 21.0566 89.9331C23.0508 89.9331 24.6414 90.5703 25.8282 91.8447ZM38.5964 103.402C37.7987 103.801 36.9037 104 35.9114 104C34.9094 104 34.0096 103.801 33.2119 103.402C32.171 102.876 31.3684 102.054 30.8041 100.936C30.2302 99.8072 29.9432 98.4841 29.9432 96.9666V89.9477H32.278V96.9666C32.278 98.4841 32.5893 99.6467 33.2119 100.454C33.8345 101.262 34.7343 101.665 35.9114 101.665C37.0302 101.665 37.9008 101.296 38.5234 100.556C39.146 99.8072 39.4816 98.7322 39.5303 97.3314H39.5449V89.9477H41.865V103.985H39.5449V102.687C39.253 102.979 38.9369 103.217 38.5964 103.402ZM47.3371 96.6163V104H45.0024V89.9623H47.3371V91.6696C48.0084 90.8816 48.8839 90.3612 49.9637 90.1082L50.1242 90.079C50.4647 90.0207 50.8198 89.9818 51.1895 89.9623V92.297C50.0026 92.3651 49.0785 92.7689 48.4169 93.5082C47.7554 94.2475 47.3955 95.2836 47.3371 96.6163ZM70.7576 91.5528C71.4678 90.94 71.8228 90.0596 71.8228 88.9117C71.8228 87.7637 71.4678 86.8833 70.7576 86.2705C70.0377 85.6576 69.0114 85.3512 67.6787 85.3512H63.2718V92.4722H67.6787C69.0114 92.4722 70.0377 92.1657 70.7576 91.5528ZM63.2718 94.8069V104H60.9371V83.031L67.6787 83.0164C69.6437 83.0164 71.2148 83.5515 72.3919 84.6215C73.569 85.6916 74.1576 87.1217 74.1576 88.9117C74.1576 90.7016 73.569 92.1317 72.3919 93.2018C71.2148 94.2719 69.6437 94.8069 67.6787 94.8069H63.2718ZM77.9516 93.479C77.2317 94.2865 76.8717 95.449 76.8717 96.9666C76.8717 98.4841 77.2317 99.6467 77.9516 100.454C78.6812 101.262 79.727 101.665 81.0889 101.665C82.4508 101.665 83.4917 101.262 84.2116 100.454C84.9412 99.6467 85.306 98.489 85.306 96.9811V96.952C85.306 95.4441 84.9412 94.2865 84.2116 93.479C83.4917 92.6716 82.4508 92.2679 81.0889 92.2679C79.727 92.2679 78.6812 92.6716 77.9516 93.479ZM81.0889 104C80.583 104 80.1015 103.956 79.6443 103.869L79.4983 103.839C77.9418 103.518 76.7258 102.75 75.8503 101.534C74.9748 100.318 74.537 98.7954 74.537 96.9666C74.537 95.1279 74.9796 93.6006 75.8649 92.3846C76.7501 91.1686 77.9759 90.4049 79.5421 90.0936L79.688 90.0499C80.1355 89.972 80.6025 89.9331 81.0889 89.9331C81.5753 89.9331 82.0471 89.9769 82.5043 90.0644L82.6357 90.0936C83.7349 90.3271 84.6251 90.8476 85.306 91.655V89.9477H87.6408V104H85.306V102.278C84.6348 103.076 83.7593 103.596 82.6794 103.839L82.5189 103.869C82.0617 103.956 81.585 104 81.0889 104ZM92.1206 98.6009V92.5597L89.9756 92.3116V89.9915L92.1206 90.2395V85.249H94.4408V90.2395L96.5858 89.9915V92.3116L94.4408 92.5597V98.2361V98.6009V99.7245C94.4408 101.018 95.005 101.665 96.1335 101.665H96.5712V104H96.1335C94.9272 104 93.9544 103.606 93.215 102.818C92.4757 102.04 92.106 101.009 92.106 99.7245V98.9511L92.1206 98.6009ZM101.27 96.6163V104H98.9352V83.031H101.27V91.2464C101.552 90.9643 101.863 90.7308 102.204 90.546C103.002 90.1471 103.901 89.9477 104.903 89.9477C105.896 89.9477 106.795 90.1471 107.603 90.546C108.634 91.0713 109.437 91.8933 110.011 93.0121C110.575 94.1308 110.857 95.449 110.857 96.9666V104H108.537V96.9666C108.537 95.4587 108.221 94.2962 107.588 93.479C106.966 92.6716 106.071 92.2679 104.903 92.2679C103.775 92.2679 102.899 92.6424 102.277 93.3915C101.654 94.1405 101.319 95.2155 101.27 96.6163ZM120.619 83.0164H135.357V85.3512H129.156V104H126.821V85.3512H120.619V83.0164ZM135.445 93.479C134.725 94.2865 134.365 95.449 134.365 96.9666C134.365 98.4841 134.725 99.6467 135.445 100.454C136.174 101.262 137.22 101.665 138.582 101.665C139.944 101.665 140.99 101.262 141.72 100.454C142.439 99.6467 142.799 98.4841 142.799 96.9666C142.799 95.449 142.439 94.2865 141.72 93.479C140.99 92.6716 139.944 92.2679 138.582 92.2679C137.22 92.2679 136.174 92.6716 135.445 93.479ZM143.354 91.8447C144.541 93.1288 145.134 94.8361 145.134 96.9666C145.134 99.1067 144.541 100.814 143.354 102.088C142.167 103.363 140.576 104 138.582 104C136.588 104 134.997 103.363 133.811 102.088C132.624 100.814 132.03 99.1067 132.03 96.9666C132.03 94.8361 132.624 93.1288 133.811 91.8447C134.997 90.5703 136.588 89.9331 138.582 89.9331C140.576 89.9331 142.167 90.5703 143.354 91.8447ZM164.702 91.5528C165.412 90.94 165.767 90.0596 165.767 88.9117C165.767 87.7637 165.412 86.8833 164.702 86.2705C163.982 85.6576 162.956 85.3512 161.623 85.3512H157.216V92.4722H161.623C162.956 92.4722 163.982 92.1657 164.702 91.5528ZM157.216 94.8069V104H154.882V83.031L161.623 83.0164C163.588 83.0164 165.159 83.5515 166.337 84.6215C167.514 85.6916 168.102 87.1217 168.102 88.9117C168.102 90.7016 167.514 92.1317 166.337 93.2018C165.159 94.2719 163.588 94.8069 161.623 94.8069H157.216ZM172.772 96.6163V104H170.437V89.9623H172.772V91.6696C173.443 90.8816 174.319 90.3612 175.398 90.1082L175.559 90.079C175.899 90.0207 176.254 89.9818 176.624 89.9623V92.297C175.437 92.3651 174.513 92.7689 173.852 93.5082C173.19 94.2475 172.83 95.2836 172.772 96.6163ZM180.272 93.479C179.552 94.2865 179.192 95.449 179.192 96.9666C179.192 98.4841 179.552 99.6467 180.272 100.454C181.002 101.262 182.048 101.665 183.409 101.665C184.771 101.665 185.817 101.262 186.547 100.454C187.267 99.6467 187.627 98.4841 187.627 96.9666C187.627 95.449 187.267 94.2865 186.547 93.479C185.817 92.6716 184.771 92.2679 183.409 92.2679C182.048 92.2679 181.002 92.6716 180.272 93.479ZM188.181 91.8447C189.368 93.1288 189.961 94.8361 189.961 96.9666C189.961 99.1067 189.368 100.814 188.181 102.088C186.994 103.363 185.404 104 183.409 104C181.415 104 179.825 103.363 178.638 102.088C177.451 100.814 176.858 99.1067 176.858 96.9666C176.858 94.8361 177.451 93.1288 178.638 91.8447C179.825 90.5703 181.415 89.9331 183.409 89.9331C185.404 89.9331 186.994 90.5703 188.181 91.8447ZM201.839 97.0103C202.647 97.7691 203.051 98.7079 203.051 99.8266C203.051 100.936 202.647 101.87 201.839 102.628C200.876 103.543 199.48 104 197.651 104C195.988 104 194.679 103.625 193.726 102.876C192.919 102.244 192.442 101.422 192.296 100.41L194.631 100.221C194.864 101.184 195.871 101.665 197.651 101.665C199.694 101.665 200.716 101.052 200.716 99.8266C200.716 98.5912 199.694 97.9734 197.651 97.9734C195.9 97.9734 194.563 97.5357 193.639 96.6601C192.87 95.9305 192.486 95.0307 192.486 93.9606C192.486 92.8807 192.87 91.976 193.639 91.2464C194.563 90.3709 195.9 89.9331 197.651 89.9331C199.218 89.9331 200.458 90.2882 201.372 90.9983C202.141 91.5918 202.603 92.37 202.759 93.3331L200.424 93.5082C200.171 92.6813 199.247 92.2679 197.651 92.2679C196.562 92.2679 195.779 92.4722 195.302 92.8807C195.127 93.0364 194.996 93.2164 194.908 93.4206C194.84 93.586 194.806 93.766 194.806 93.9606C194.806 94.1454 194.84 94.3205 194.908 94.4859C194.996 94.6999 195.127 94.8847 195.302 95.0404C195.779 95.4392 196.562 95.6387 197.651 95.6387C199.48 95.6387 200.876 96.0959 201.839 97.0103ZM208.829 100.454C209.549 101.262 210.59 101.665 211.952 101.665C213.314 101.665 214.36 101.262 215.089 100.454C215.809 99.6467 216.169 98.4841 216.169 96.9666C216.169 95.449 215.809 94.2865 215.089 93.479C214.36 92.6716 213.314 92.2679 211.952 92.2679C210.59 92.2679 209.549 92.6716 208.829 93.479C208.099 94.2865 207.735 95.449 207.735 96.9666V96.9811C207.735 98.489 208.099 99.6467 208.829 100.454ZM213.499 103.854L213.367 103.883C212.91 103.961 212.438 104 211.952 104C211.465 104 210.998 103.961 210.551 103.883L210.405 103.854C209.296 103.611 208.406 103.086 207.735 102.278V110.917H205.4V89.9477H207.735V91.655C208.406 90.867 209.286 90.3466 210.376 90.0936L210.522 90.0644C210.979 89.9769 211.456 89.9331 211.952 89.9331C212.448 89.9331 212.929 89.9769 213.396 90.0644C213.455 90.0742 213.503 90.0839 213.542 90.0936C215.099 90.4147 216.315 91.1832 217.19 92.3992C218.066 93.6152 218.504 95.1377 218.504 96.9666C218.504 98.8052 218.061 100.332 217.176 101.549C216.291 102.765 215.065 103.533 213.499 103.854ZM223.275 95.7554H231.491C231.491 95.6289 231.481 95.5171 231.462 95.4198L231.432 95.3176C230.946 93.2845 229.599 92.2679 227.39 92.2679C226.145 92.2679 225.167 92.6035 224.457 93.2747C223.922 93.7806 223.553 94.4616 223.348 95.3176C223.319 95.4441 223.295 95.59 223.275 95.7554ZM233.942 96.8352V97.9296H223.232C223.251 98.1145 223.27 98.2604 223.29 98.3674C223.475 99.2916 223.849 100.031 224.414 100.585C225.153 101.305 226.194 101.665 227.536 101.665C228.422 101.665 229.21 101.51 229.9 101.198C230.581 100.887 231.102 100.449 231.462 99.885L233.563 100.906C233.008 101.879 232.201 102.638 231.141 103.183C230.08 103.728 228.879 104 227.536 104C225.523 104 223.908 103.373 222.692 102.118C221.485 100.872 220.868 99.1943 220.838 97.0833V96.9666C220.838 94.8361 221.432 93.1288 222.619 91.8447C223.806 90.5703 225.396 89.9331 227.39 89.9331C229.132 89.9331 230.571 90.4195 231.71 91.3923C232.848 92.3749 233.553 93.7271 233.826 95.449C233.894 95.9062 233.933 96.3683 233.942 96.8352ZM238.612 96.6163V104H236.277V89.9623H238.612V91.6696C239.283 90.8816 240.159 90.3612 241.238 90.1082L241.399 90.079C241.739 90.0207 242.094 89.9818 242.464 89.9623V92.297C241.277 92.3651 240.353 92.7689 239.692 93.5082C239.03 94.2475 238.67 95.2836 238.612 96.6163ZM243.88 104V89.9331H246.2V104H243.88ZM245.966 86.9563C245.713 87.219 245.402 87.3503 245.032 87.3503C244.672 87.3503 244.366 87.219 244.113 86.9563C243.85 86.7034 243.719 86.3921 243.719 86.0224C243.719 85.6625 243.85 85.3512 244.113 85.0885C244.366 84.8356 244.672 84.7091 245.032 84.7091C245.402 84.7091 245.713 84.8356 245.966 85.0885C246.229 85.3512 246.36 85.6625 246.36 86.0224C246.36 86.3921 246.229 86.7034 245.966 86.9563ZM250.855 98.6009V92.5597L248.71 92.3116V89.9915L250.855 90.2395V85.249H253.175V90.2395L255.32 89.9915V92.3116L253.175 92.5597V98.2361V98.6009V99.7245C253.175 101.018 253.739 101.665 254.867 101.665H255.305V104H254.867C253.661 104 252.688 103.606 251.949 102.818C251.21 102.04 250.84 101.009 250.84 99.7245V98.9511L250.855 98.6009ZM269.664 89.9039V105.051C269.664 107.006 269.08 108.572 267.913 109.749C266.746 110.917 265.184 111.5 263.229 111.5C260.622 111.5 258.768 110.537 257.669 108.611L259.77 107.575C260.442 108.635 261.594 109.166 263.229 109.166C264.552 109.166 265.568 108.811 266.279 108.1C266.979 107.4 267.329 106.383 267.329 105.051V102.701C267.037 102.983 266.726 103.217 266.395 103.402C265.598 103.801 264.698 104 263.696 104C262.694 104 261.794 103.801 260.996 103.402C259.965 102.876 259.162 102.054 258.588 100.936C258.024 99.8169 257.742 98.4939 257.742 96.9666V89.9039H260.062V96.9666C260.062 98.4841 260.378 99.6467 261.011 100.454C261.633 101.271 262.528 101.68 263.696 101.68C264.824 101.68 265.7 101.305 266.322 100.556C266.945 99.8072 267.281 98.7322 267.329 97.3314V89.9039H269.664Z" fill="white"/>
</svg>
