<svg width="30" height="30" viewBox="0 0 30 30" fill="none" xmlns="http://www.w3.org/2000/svg">
<path opacity="0.21" fill-rule="evenodd" clip-rule="evenodd" d="M0 15V18.5C0 24.8513 5.14873 30 11.5 30H15H18.5C24.8513 30 30 24.8513 30 18.5V15.0076C30 15.0051 30 15.0025 30 15C30 14.9974 30 14.9949 30 14.9924V11.5C30 5.14873 24.8513 0 18.5 0H15H11.5C5.14873 0 0 5.14872 0 11.5V15Z" fill="#E74545"/>
<path d="M9.55556 20.4444H21.2222C21.6518 20.4444 22 20.7927 22 21.2222C22 21.6518 21.6518 22 21.2222 22H8.77778C8.34822 22 8 21.6518 8 21.2222V8.77778C8 8.34822 8.34822 8 8.77778 8C9.20733 8 9.55556 8.34822 9.55556 8.77778V20.4444Z" fill="#E74545"/>
<path opacity="0.5" d="M12.4565 17.0875C12.1627 17.4009 11.6705 17.4167 11.3572 17.123C11.0438 16.8292 11.0279 16.337 11.3217 16.0236L14.2384 12.9125C14.5225 12.6094 14.9946 12.5831 15.3106 12.8528L17.6127 14.8172L20.612 11.018C20.8781 10.6809 21.3672 10.6233 21.7044 10.8895C22.0415 11.1557 22.0991 11.6448 21.8329 11.9819L18.3329 16.4153C18.0595 16.7615 17.5532 16.8113 17.2176 16.525L14.8655 14.5179L12.4565 17.0875Z" fill="#E74545"/>
</svg>
