<svg width="190" height="190" viewBox="0 0 190 190" fill="none" xmlns="http://www.w3.org/2000/svg">
<path d="M0 175.282C0 167.153 6.58961 160.563 14.7183 160.563C22.847 160.563 29.4366 167.153 29.4366 175.282C29.4366 183.41 22.847 190 14.7183 190C6.58961 190 0 183.41 0 175.282Z" fill="url(#paint0_linear_100_17)" fill-opacity="0.5"/>
<path d="M0 68.2394C0 60.1107 6.58961 53.5211 14.7183 53.5211C22.847 53.5211 29.4366 60.1107 29.4366 68.2394C29.4366 76.3681 22.847 82.9577 14.7183 82.9577C6.58961 82.9577 0 76.3681 0 68.2394Z" fill="url(#paint1_linear_100_17)" fill-opacity="0.5"/>
<path d="M107.042 175.282C107.042 167.153 113.632 160.563 121.761 160.563C129.889 160.563 136.479 167.153 136.479 175.282C136.479 183.41 129.889 190 121.761 190C113.632 190 107.042 183.41 107.042 175.282Z" fill="url(#paint2_linear_100_17)" fill-opacity="0.5"/>
<path d="M107.042 68.2394C107.042 60.1107 113.632 53.5211 121.761 53.5211C129.889 53.5211 136.479 60.1107 136.479 68.2394C136.479 76.3681 129.889 82.9577 121.761 82.9577C113.632 82.9577 107.042 76.3681 107.042 68.2394Z" fill="url(#paint3_linear_100_17)" fill-opacity="0.5"/>
<path d="M53.5211 175.282C53.5211 167.153 60.1107 160.563 68.2394 160.563C76.3681 160.563 82.9577 167.153 82.9577 175.282C82.9577 183.41 76.3681 190 68.2394 190C60.1107 190 53.5211 183.41 53.5211 175.282Z" fill="url(#paint4_linear_100_17)" fill-opacity="0.5"/>
<path d="M53.5211 68.2394C53.5211 60.1107 60.1107 53.5211 68.2394 53.5211C76.3681 53.5211 82.9577 60.1107 82.9577 68.2394C82.9577 76.3681 76.3681 82.9577 68.2394 82.9577C60.1107 82.9577 53.5211 76.3681 53.5211 68.2394Z" fill="url(#paint5_linear_100_17)" fill-opacity="0.5"/>
<path d="M160.563 175.282C160.563 167.153 167.153 160.563 175.282 160.563C183.41 160.563 190 167.153 190 175.282C190 183.41 183.41 190 175.282 190C167.153 190 160.563 183.41 160.563 175.282Z" fill="url(#paint6_linear_100_17)" fill-opacity="0.5"/>
<path d="M160.563 68.2394C160.563 60.1107 167.153 53.5211 175.282 53.5211C183.41 53.5211 190 60.1107 190 68.2394C190 76.3681 183.41 82.9577 175.282 82.9577C167.153 82.9577 160.563 76.3681 160.563 68.2394Z" fill="url(#paint7_linear_100_17)" fill-opacity="0.5"/>
<path d="M0 121.761C0 113.632 6.58961 107.042 14.7183 107.042C22.847 107.042 29.4366 113.632 29.4366 121.761C29.4366 129.889 22.847 136.479 14.7183 136.479C6.58961 136.479 0 129.889 0 121.761Z" fill="url(#paint8_linear_100_17)" fill-opacity="0.5"/>
<path d="M0 14.7183C0 6.58961 6.58961 0 14.7183 0C22.847 0 29.4366 6.58961 29.4366 14.7183C29.4366 22.847 22.847 29.4366 14.7183 29.4366C6.58961 29.4366 0 22.847 0 14.7183Z" fill="url(#paint9_linear_100_17)" fill-opacity="0.5"/>
<path d="M107.042 121.761C107.042 113.632 113.632 107.042 121.761 107.042C129.889 107.042 136.479 113.632 136.479 121.761C136.479 129.889 129.889 136.479 121.761 136.479C113.632 136.479 107.042 129.889 107.042 121.761Z" fill="url(#paint10_linear_100_17)" fill-opacity="0.5"/>
<path d="M107.042 14.7183C107.042 6.58961 113.632 0 121.761 0C129.889 0 136.479 6.58961 136.479 14.7183C136.479 22.847 129.889 29.4366 121.761 29.4366C113.632 29.4366 107.042 22.847 107.042 14.7183Z" fill="url(#paint11_linear_100_17)" fill-opacity="0.5"/>
<path d="M53.5211 121.761C53.5211 113.632 60.1107 107.042 68.2394 107.042C76.3681 107.042 82.9577 113.632 82.9577 121.761C82.9577 129.889 76.3681 136.479 68.2394 136.479C60.1107 136.479 53.5211 129.889 53.5211 121.761Z" fill="url(#paint12_linear_100_17)" fill-opacity="0.5"/>
<path d="M53.5211 14.7183C53.5211 6.58961 60.1107 0 68.2394 0C76.3681 0 82.9577 6.58961 82.9577 14.7183C82.9577 22.847 76.3681 29.4366 68.2394 29.4366C60.1107 29.4366 53.5211 22.847 53.5211 14.7183Z" fill="url(#paint13_linear_100_17)" fill-opacity="0.5"/>
<path d="M160.563 121.761C160.563 113.632 167.153 107.042 175.282 107.042C183.41 107.042 190 113.632 190 121.761C190 129.889 183.41 136.479 175.282 136.479C167.153 136.479 160.563 129.889 160.563 121.761Z" fill="url(#paint14_linear_100_17)" fill-opacity="0.5"/>
<path d="M160.563 14.7183C160.563 6.58961 167.153 0 175.282 0C183.41 0 190 6.58961 190 14.7183C190 22.847 183.41 29.4366 175.282 29.4366C167.153 29.4366 160.563 22.847 160.563 14.7183Z" fill="url(#paint15_linear_100_17)" fill-opacity="0.5"/>
<defs>
<linearGradient id="paint0_linear_100_17" x1="0" y1="190" x2="151.197" y2="29.4366" gradientUnits="userSpaceOnUse">
<stop stop-color="#142F9F"/>
<stop offset="1" stop-color="white"/>
</linearGradient>
<linearGradient id="paint1_linear_100_17" x1="0" y1="190" x2="151.197" y2="29.4366" gradientUnits="userSpaceOnUse">
<stop stop-color="#142F9F"/>
<stop offset="1" stop-color="white"/>
</linearGradient>
<linearGradient id="paint2_linear_100_17" x1="0" y1="190" x2="151.197" y2="29.4366" gradientUnits="userSpaceOnUse">
<stop stop-color="#142F9F"/>
<stop offset="1" stop-color="white"/>
</linearGradient>
<linearGradient id="paint3_linear_100_17" x1="0" y1="190" x2="151.197" y2="29.4366" gradientUnits="userSpaceOnUse">
<stop stop-color="#142F9F"/>
<stop offset="1" stop-color="white"/>
</linearGradient>
<linearGradient id="paint4_linear_100_17" x1="0" y1="190" x2="151.197" y2="29.4366" gradientUnits="userSpaceOnUse">
<stop stop-color="#142F9F"/>
<stop offset="1" stop-color="white"/>
</linearGradient>
<linearGradient id="paint5_linear_100_17" x1="0" y1="190" x2="151.197" y2="29.4366" gradientUnits="userSpaceOnUse">
<stop stop-color="#142F9F"/>
<stop offset="1" stop-color="white"/>
</linearGradient>
<linearGradient id="paint6_linear_100_17" x1="0" y1="190" x2="151.197" y2="29.4366" gradientUnits="userSpaceOnUse">
<stop stop-color="#142F9F"/>
<stop offset="1" stop-color="white"/>
</linearGradient>
<linearGradient id="paint7_linear_100_17" x1="0" y1="190" x2="151.197" y2="29.4366" gradientUnits="userSpaceOnUse">
<stop stop-color="#142F9F"/>
<stop offset="1" stop-color="white"/>
</linearGradient>
<linearGradient id="paint8_linear_100_17" x1="0" y1="190" x2="151.197" y2="29.4366" gradientUnits="userSpaceOnUse">
<stop stop-color="#142F9F"/>
<stop offset="1" stop-color="white"/>
</linearGradient>
<linearGradient id="paint9_linear_100_17" x1="0" y1="190" x2="151.197" y2="29.4366" gradientUnits="userSpaceOnUse">
<stop stop-color="#142F9F"/>
<stop offset="1" stop-color="white"/>
</linearGradient>
<linearGradient id="paint10_linear_100_17" x1="0" y1="190" x2="151.197" y2="29.4366" gradientUnits="userSpaceOnUse">
<stop stop-color="#142F9F"/>
<stop offset="1" stop-color="white"/>
</linearGradient>
<linearGradient id="paint11_linear_100_17" x1="0" y1="190" x2="151.197" y2="29.4366" gradientUnits="userSpaceOnUse">
<stop stop-color="#142F9F"/>
<stop offset="1" stop-color="white"/>
</linearGradient>
<linearGradient id="paint12_linear_100_17" x1="0" y1="190" x2="151.197" y2="29.4366" gradientUnits="userSpaceOnUse">
<stop stop-color="#142F9F"/>
<stop offset="1" stop-color="white"/>
</linearGradient>
<linearGradient id="paint13_linear_100_17" x1="0" y1="190" x2="151.197" y2="29.4366" gradientUnits="userSpaceOnUse">
<stop stop-color="#142F9F"/>
<stop offset="1" stop-color="white"/>
</linearGradient>
<linearGradient id="paint14_linear_100_17" x1="0" y1="190" x2="151.197" y2="29.4366" gradientUnits="userSpaceOnUse">
<stop stop-color="#142F9F"/>
<stop offset="1" stop-color="white"/>
</linearGradient>
<linearGradient id="paint15_linear_100_17" x1="0" y1="190" x2="151.197" y2="29.4366" gradientUnits="userSpaceOnUse">
<stop stop-color="#142F9F"/>
<stop offset="1" stop-color="white"/>
</linearGradient>
</defs>
</svg>
