<svg width="124" height="124" viewBox="0 0 124 124" fill="none" xmlns="http://www.w3.org/2000/svg">
<path d="M124 9.60563C124 14.9107 119.699 19.2113 114.394 19.2113C109.089 19.2113 104.789 14.9107 104.789 9.60563C104.789 4.30059 109.089 0 114.394 0C119.699 0 124 4.30059 124 9.60563Z" fill="url(#paint0_linear_100_15)" fill-opacity="0.7"/>
<path d="M124 79.4648C124 84.7698 119.699 89.0704 114.394 89.0704C109.089 89.0704 104.789 84.7698 104.789 79.4648C104.789 74.1597 109.089 69.8592 114.394 69.8592C119.699 69.8592 124 74.1597 124 79.4648Z" fill="url(#paint1_linear_100_15)" fill-opacity="0.7"/>
<path d="M54.1408 9.60563C54.1408 14.9107 49.8403 19.2113 44.5352 19.2113C39.2302 19.2113 34.9296 14.9107 34.9296 9.60563C34.9296 4.30059 39.2302 0 44.5352 0C49.8403 0 54.1408 4.30059 54.1408 9.60563Z" fill="url(#paint2_linear_100_15)" fill-opacity="0.7"/>
<path d="M54.1408 79.4648C54.1408 84.7698 49.8403 89.0704 44.5352 89.0704C39.2302 89.0704 34.9296 84.7698 34.9296 79.4648C34.9296 74.1597 39.2302 69.8592 44.5352 69.8592C49.8403 69.8592 54.1408 74.1597 54.1408 79.4648Z" fill="url(#paint3_linear_100_15)" fill-opacity="0.7"/>
<path d="M89.0704 9.60563C89.0704 14.9107 84.7698 19.2113 79.4648 19.2113C74.1597 19.2113 69.8592 14.9107 69.8592 9.60563C69.8592 4.30059 74.1597 0 79.4648 0C84.7698 0 89.0704 4.30059 89.0704 9.60563Z" fill="url(#paint4_linear_100_15)" fill-opacity="0.7"/>
<path d="M89.0704 79.4648C89.0704 84.7698 84.7698 89.0704 79.4648 89.0704C74.1597 89.0704 69.8592 84.7698 69.8592 79.4648C69.8592 74.1597 74.1597 69.8592 79.4648 69.8592C84.7698 69.8592 89.0704 74.1597 89.0704 79.4648Z" fill="url(#paint5_linear_100_15)" fill-opacity="0.7"/>
<path d="M19.2113 9.60563C19.2113 14.9107 14.9107 19.2113 9.60563 19.2113C4.30059 19.2113 0 14.9107 0 9.60563C0 4.30059 4.30059 0 9.60563 0C14.9107 0 19.2113 4.30059 19.2113 9.60563Z" fill="url(#paint6_linear_100_15)" fill-opacity="0.7"/>
<path d="M19.2113 79.4648C19.2113 84.7698 14.9107 89.0704 9.60563 89.0704C4.30059 89.0704 0 84.7698 0 79.4648C0 74.1597 4.30059 69.8592 9.60563 69.8592C14.9107 69.8592 19.2113 74.1597 19.2113 79.4648Z" fill="url(#paint7_linear_100_15)" fill-opacity="0.7"/>
<path d="M124 44.5352C124 49.8403 119.699 54.1408 114.394 54.1408C109.089 54.1408 104.789 49.8403 104.789 44.5352C104.789 39.2302 109.089 34.9296 114.394 34.9296C119.699 34.9296 124 39.2302 124 44.5352Z" fill="url(#paint8_linear_100_15)" fill-opacity="0.7"/>
<path d="M124 114.394C124 119.699 119.699 124 114.394 124C109.089 124 104.789 119.699 104.789 114.394C104.789 109.089 109.089 104.789 114.394 104.789C119.699 104.789 124 109.089 124 114.394Z" fill="url(#paint9_linear_100_15)" fill-opacity="0.7"/>
<path d="M54.1408 44.5352C54.1408 49.8403 49.8403 54.1408 44.5352 54.1408C39.2302 54.1408 34.9296 49.8403 34.9296 44.5352C34.9296 39.2302 39.2302 34.9296 44.5352 34.9296C49.8403 34.9296 54.1408 39.2302 54.1408 44.5352Z" fill="url(#paint10_linear_100_15)" fill-opacity="0.7"/>
<path d="M54.1408 114.394C54.1408 119.699 49.8403 124 44.5352 124C39.2302 124 34.9296 119.699 34.9296 114.394C34.9296 109.089 39.2302 104.789 44.5352 104.789C49.8403 104.789 54.1408 109.089 54.1408 114.394Z" fill="url(#paint11_linear_100_15)" fill-opacity="0.7"/>
<path d="M89.0704 44.5352C89.0704 49.8403 84.7698 54.1408 79.4648 54.1408C74.1597 54.1408 69.8592 49.8403 69.8592 44.5352C69.8592 39.2302 74.1597 34.9296 79.4648 34.9296C84.7698 34.9296 89.0704 39.2302 89.0704 44.5352Z" fill="url(#paint12_linear_100_15)" fill-opacity="0.7"/>
<path d="M89.0704 114.394C89.0704 119.699 84.7698 124 79.4648 124C74.1597 124 69.8592 119.699 69.8592 114.394C69.8592 109.089 74.1597 104.789 79.4648 104.789C84.7698 104.789 89.0704 109.089 89.0704 114.394Z" fill="url(#paint13_linear_100_15)" fill-opacity="0.7"/>
<path d="M19.2113 44.5352C19.2113 49.8403 14.9107 54.1408 9.60563 54.1408C4.30059 54.1408 0 49.8403 0 44.5352C0 39.2302 4.30059 34.9296 9.60563 34.9296C14.9107 34.9296 19.2113 39.2302 19.2113 44.5352Z" fill="url(#paint14_linear_100_15)" fill-opacity="0.7"/>
<path d="M19.2113 114.394C19.2113 119.699 14.9107 124 9.60563 124C4.30059 124 0 119.699 0 114.394C0 109.089 4.30059 104.789 9.60563 104.789C14.9107 104.789 19.2113 109.089 19.2113 114.394Z" fill="url(#paint15_linear_100_15)" fill-opacity="0.7"/>
<defs>
<linearGradient id="paint0_linear_100_15" x1="124" y1="0" x2="25.3239" y2="104.789" gradientUnits="userSpaceOnUse">
<stop stop-color="#142F9F"/>
<stop offset="1" stop-color="white"/>
</linearGradient>
<linearGradient id="paint1_linear_100_15" x1="124" y1="0" x2="25.3239" y2="104.789" gradientUnits="userSpaceOnUse">
<stop stop-color="#142F9F"/>
<stop offset="1" stop-color="white"/>
</linearGradient>
<linearGradient id="paint2_linear_100_15" x1="124" y1="0" x2="25.3239" y2="104.789" gradientUnits="userSpaceOnUse">
<stop stop-color="#142F9F"/>
<stop offset="1" stop-color="white"/>
</linearGradient>
<linearGradient id="paint3_linear_100_15" x1="124" y1="0" x2="25.3239" y2="104.789" gradientUnits="userSpaceOnUse">
<stop stop-color="#142F9F"/>
<stop offset="1" stop-color="white"/>
</linearGradient>
<linearGradient id="paint4_linear_100_15" x1="124" y1="0" x2="25.3239" y2="104.789" gradientUnits="userSpaceOnUse">
<stop stop-color="#142F9F"/>
<stop offset="1" stop-color="white"/>
</linearGradient>
<linearGradient id="paint5_linear_100_15" x1="124" y1="0" x2="25.3239" y2="104.789" gradientUnits="userSpaceOnUse">
<stop stop-color="#142F9F"/>
<stop offset="1" stop-color="white"/>
</linearGradient>
<linearGradient id="paint6_linear_100_15" x1="124" y1="0" x2="25.3239" y2="104.789" gradientUnits="userSpaceOnUse">
<stop stop-color="#142F9F"/>
<stop offset="1" stop-color="white"/>
</linearGradient>
<linearGradient id="paint7_linear_100_15" x1="124" y1="0" x2="25.3239" y2="104.789" gradientUnits="userSpaceOnUse">
<stop stop-color="#142F9F"/>
<stop offset="1" stop-color="white"/>
</linearGradient>
<linearGradient id="paint8_linear_100_15" x1="124" y1="0" x2="25.3239" y2="104.789" gradientUnits="userSpaceOnUse">
<stop stop-color="#142F9F"/>
<stop offset="1" stop-color="white"/>
</linearGradient>
<linearGradient id="paint9_linear_100_15" x1="124" y1="0" x2="25.3239" y2="104.789" gradientUnits="userSpaceOnUse">
<stop stop-color="#142F9F"/>
<stop offset="1" stop-color="white"/>
</linearGradient>
<linearGradient id="paint10_linear_100_15" x1="124" y1="0" x2="25.3239" y2="104.789" gradientUnits="userSpaceOnUse">
<stop stop-color="#142F9F"/>
<stop offset="1" stop-color="white"/>
</linearGradient>
<linearGradient id="paint11_linear_100_15" x1="124" y1="0" x2="25.3239" y2="104.789" gradientUnits="userSpaceOnUse">
<stop stop-color="#142F9F"/>
<stop offset="1" stop-color="white"/>
</linearGradient>
<linearGradient id="paint12_linear_100_15" x1="124" y1="0" x2="25.3239" y2="104.789" gradientUnits="userSpaceOnUse">
<stop stop-color="#142F9F"/>
<stop offset="1" stop-color="white"/>
</linearGradient>
<linearGradient id="paint13_linear_100_15" x1="124" y1="0" x2="25.3239" y2="104.789" gradientUnits="userSpaceOnUse">
<stop stop-color="#142F9F"/>
<stop offset="1" stop-color="white"/>
</linearGradient>
<linearGradient id="paint14_linear_100_15" x1="124" y1="0" x2="25.3239" y2="104.789" gradientUnits="userSpaceOnUse">
<stop stop-color="#142F9F"/>
<stop offset="1" stop-color="white"/>
</linearGradient>
<linearGradient id="paint15_linear_100_15" x1="124" y1="0" x2="25.3239" y2="104.789" gradientUnits="userSpaceOnUse">
<stop stop-color="#142F9F"/>
<stop offset="1" stop-color="white"/>
</linearGradient>
</defs>
</svg>
