<svg width="27" height="28" viewBox="0 0 27 28" fill="none" xmlns="http://www.w3.org/2000/svg">
<g clip-path="url(#clip0_98_1460)">
<path fill-rule="evenodd" clip-rule="evenodd" d="M24.9048 26.0282H2.20615C1.11815 26.0282 0.236816 25.2562 0.236816 24.3042V3.72023C0.236816 2.76956 1.11815 1.99756 2.20615 1.99756H24.9048C25.9915 1.99756 26.8728 2.76956 26.8728 3.72023V24.3042C26.8728 25.2562 25.9915 26.0282 24.9048 26.0282ZM4.85263 22.0695H8.77529V11.2202H4.85263V22.0695ZM6.84106 5.99122C5.49839 5.99122 4.62239 6.80056 4.62239 7.86589C4.62239 8.90589 5.47306 9.74056 6.78906 9.74056H6.81439C8.18239 9.74056 9.03306 8.90589 9.03306 7.86589C9.00906 6.80056 8.18239 5.99122 6.84106 5.99122ZM22.9195 15.8487C22.9195 12.5153 20.9835 10.9647 18.4035 10.9647C16.3208 10.9647 15.3902 12.0167 14.8688 12.7567V11.2193H10.9462C10.9982 12.238 10.9462 22.0687 10.9462 22.0687H14.8688V16.01C14.8688 15.6873 14.8942 15.362 14.9982 15.1313C15.2808 14.4833 15.9275 13.8127 17.0102 13.8127C18.4302 13.8127 18.9968 14.8073 18.9968 16.266V22.0687H22.9195V15.8487ZM14.8421 12.7942C14.8501 12.7822 14.8608 12.7702 14.8688 12.7582V12.7942H14.8421Z" fill="#1FC274"/>
</g>
<defs>
<clipPath id="clip0_98_1460">
<rect width="26.6667" height="26.6667" fill="white" transform="translate(0.222168 0.676758)"/>
</clipPath>
</defs>
</svg>
