<svg width="351" height="95" viewBox="0 0 351 95" fill="none" xmlns="http://www.w3.org/2000/svg">
<path d="M34 61C34 52.7157 40.7157 46 49 46H66V95H34V61Z" fill="#1FC274"/>
<path d="M32 61C32 52.7157 25.2843 46 17 46H0V95H32V61Z" fill="#071139"/>
<path d="M32 29C32 37.2843 25.2843 44 17 44H0V15C0 6.71573 6.71573 0 15 0H32V29Z" fill="#071139"/>
<path d="M67 15C67 23.2843 60.2843 30 52 30C43.7157 30 37 23.2843 37 15C37 11.1582 37 3.5 37 1.58433e-05C40.5 -4.17367e-06 47.5575 4.65309e-07 52 4.65309e-07C60.2843 4.65309e-07 67 6.71573 67 15Z" fill="#071139"/>
<path d="M104.286 95V48.0007H96V35.7531H104.347C104.71 27.3065 107.391 20.5693 112.391 15.5416C117.391 10.5541 123.944 8.06033 132.049 8.06033V20.2476C126.686 20.2476 122.694 21.8967 120.073 25.1949C118.016 27.7691 116.847 31.2885 116.565 35.7531H124.065V48.0007H116.565V95H104.286Z" fill="#071139"/>
<path d="M137.493 95V35.7531H149.771V95H137.493ZM148.38 26.2809C147.089 27.6082 145.517 28.2718 143.662 28.2718C141.767 28.2718 140.174 27.6082 138.884 26.2809C137.553 24.9535 136.888 23.3648 136.888 21.5146C136.888 19.6644 137.553 18.0756 138.884 16.7483C140.174 15.4612 141.767 14.8176 143.662 14.8176C145.517 14.8176 147.089 15.4612 148.38 16.7483C149.71 18.0756 150.376 19.6644 150.376 21.5146C150.376 23.3648 149.71 24.9535 148.38 26.2809Z" fill="#071139"/>
<path d="M179.832 82.5714C180.88 82.6921 182.009 82.7524 183.219 82.7524C184.429 82.7524 185.558 82.6921 186.606 82.5714C187.977 82.4105 189.167 82.129 190.175 81.7268C192.755 80.7212 194.046 79.0721 194.046 76.7795C194.046 74.4868 192.755 72.8578 190.175 71.8925C189.167 71.4903 187.977 71.2087 186.606 71.0478C185.558 70.9272 184.429 70.8668 183.219 70.8668C175.679 70.8668 169.933 68.9563 165.981 65.1352C162.674 61.9175 161.021 57.9757 161.021 53.31C161.021 48.604 162.674 44.6623 165.981 41.4847C169.933 37.6637 175.679 35.7531 183.219 35.7531C190.397 35.7531 195.961 37.5028 199.913 41.0021C203.219 43.9383 205.034 47.6387 205.356 52.1033L193.139 53.0687C193.058 51.138 191.828 49.7503 189.449 48.9057C188.562 48.5437 187.513 48.3024 186.304 48.1817C185.336 48.061 184.308 48.0007 183.219 48.0007C182.09 48.0007 181.042 48.061 180.074 48.1817C178.824 48.3426 177.755 48.5839 176.868 48.9057C174.449 49.7906 173.239 51.2587 173.239 53.31C173.239 55.3613 174.449 56.8294 176.868 57.7143C177.755 58.0361 178.824 58.2774 180.074 58.4383C181.042 58.5589 182.09 58.6193 183.219 58.6193C191.042 58.6193 197.03 60.6103 201.183 64.5922C204.61 67.8904 206.324 71.9528 206.324 76.7795C206.324 81.6463 204.61 85.7289 201.183 89.027C197.03 93.009 191.042 95 183.219 95C175.679 95 169.832 93.1498 165.678 89.4494C162.251 86.3925 160.396 82.5111 160.114 77.8051L172.332 76.8398C172.372 79.1325 173.683 80.7614 176.263 81.7268C177.271 82.129 178.461 82.4105 179.832 82.5714Z" fill="#071139"/>
<path d="M258.885 91.0784C254.531 93.6928 249.49 95 243.764 95C235.337 95 228.603 92.3051 223.562 86.9154C218.522 81.5659 216.002 74.3863 216.002 65.3766C216.002 56.3669 218.522 49.1872 223.562 43.8377C228.603 38.448 235.337 35.7531 243.764 35.7531C249.45 35.7531 254.45 37.0402 258.765 39.6144C263.119 42.1886 266.386 45.8287 268.563 50.5347L257.434 55.663C255.055 50.5548 250.498 48.0007 243.764 48.0007C237.998 48.0007 233.804 49.8911 231.183 53.672C229.248 56.6082 228.28 60.5097 228.28 65.3766C228.28 70.2434 229.248 74.1449 231.183 77.0811C233.804 80.862 237.998 82.7524 243.764 82.7524C250.539 82.7524 255.115 80.1581 257.494 74.9695L268.624 80.0374C266.446 84.7836 263.2 88.4639 258.885 91.0784Z" fill="#071139"/>
<path d="M306.427 25.6827C308.834 26.411 310.743 28.2563 311.551 30.6376L333.391 95H323.038L316.362 75.6176H292.029L285.353 95H275L296.794 30.6395C297.601 28.2572 299.508 26.4111 301.915 25.6826C303.386 25.2375 304.957 25.2376 306.427 25.6827ZM295.367 65.805H313.024L304.171 40.1076L295.367 65.805Z" fill="#1FC274"/>
<path d="M341.179 95V29.9102C341.179 27.1984 343.378 25 346.09 25C348.802 25 351 27.1984 351 29.9102V95H341.179Z" fill="#1FC274"/>
</svg>
