<svg width="30" height="30" viewBox="0 0 30 30" fill="none" xmlns="http://www.w3.org/2000/svg">
<path opacity="0.21" fill-rule="evenodd" clip-rule="evenodd" d="M0 15V18.5C0 24.8513 5.14873 30 11.5 30H15H18.5C24.8513 30 30 24.8513 30 18.5V15.0076C30 15.0051 30 15.0025 30 15C30 14.9974 30 14.9949 30 14.9924V11.5C30 5.14873 24.8513 0 18.5 0H15H11.5C5.14873 0 0 5.14872 0 11.5V15Z" fill="#1FC274"/>
<path d="M9.55556 20.4444H21.2222C21.6518 20.4444 22 20.7927 22 21.2222C22 21.6518 21.6518 22 21.2222 22H8.77778C8.34822 22 8 21.6518 8 21.2222V8.77778C8 8.34822 8.34822 8 8.77778 8C9.20733 8 9.55556 8.34822 9.55556 8.77778V20.4444Z" fill="#1FC274"/>
<path opacity="0.5" d="M20.6548 17.0875C20.9486 17.4009 21.4408 17.4167 21.7542 17.123C22.0676 16.8292 22.0834 16.337 21.7896 16.0236L18.873 12.9125C18.5888 12.6094 18.1167 12.5831 17.8007 12.8528L15.4987 14.8172L12.4993 11.018C12.2332 10.6809 11.7441 10.6233 11.4069 10.8895C11.0698 11.1557 11.0122 11.6448 11.2784 11.9819L14.7784 16.4153C15.0518 16.7615 15.5582 16.8113 15.8938 16.525L18.2458 14.5179L20.6548 17.0875Z" fill="#1FC274"/>
</svg>
