<svg width="48" height="49" viewBox="0 0 48 49" fill="none" xmlns="http://www.w3.org/2000/svg">
<circle cx="24.2273" cy="24.4317" r="23.6321" fill="#1FC274"/>
<path opacity="0.01" d="M10.0477 38.6111H38.4062V10.2525L10.0477 10.2525L10.0477 38.6111Z" fill="white"/>
<path d="M32.7815 16.8461H32.3089L28.3151 12.8523C27.996 12.5333 27.4761 12.5333 27.1453 12.8523C26.8262 13.1713 26.8262 13.6913 27.1453 14.0221L29.9693 16.8461H18.4841L21.3081 14.0221C21.6272 13.7031 21.6272 13.1832 21.3081 12.8523C20.9891 12.5333 20.4692 12.5333 20.1383 12.8523L16.1563 16.8461H15.6837C14.6202 16.8461 12.4106 16.8461 12.4106 19.8711C12.4106 21.0172 12.647 21.7734 13.1432 22.2697C13.4268 22.5651 13.7695 22.7187 14.1358 22.8014C14.4785 22.8841 14.8448 22.896 15.1992 22.896H33.2542C33.6205 22.896 33.9631 22.8723 34.294 22.8014C35.2865 22.5651 36.0428 21.8562 36.0428 19.8711C36.0428 16.8461 33.8332 16.8461 32.7815 16.8461Z" fill="white"/>
<path d="M32.5576 24.4319H15.8024C15.0698 24.4319 14.5144 25.0818 14.6326 25.8025L15.6251 31.876C15.956 33.9084 16.8422 36.2479 20.7769 36.2479H27.4058C31.3878 36.2479 32.0967 34.251 32.5221 32.0178L33.7155 25.838C33.8573 25.1054 33.302 24.4319 32.5576 24.4319ZM22.5848 32.0532C22.5848 32.5141 22.2185 32.8804 21.7695 32.8804C21.3087 32.8804 20.9424 32.5141 20.9424 32.0532V28.1539C20.9424 27.7049 21.3087 27.3268 21.7695 27.3268C22.2185 27.3268 22.5848 27.7049 22.5848 28.1539V32.0532ZM27.6421 32.0532C27.6421 32.5141 27.2758 32.8804 26.815 32.8804C26.3659 32.8804 25.9878 32.5141 25.9878 32.0532V28.1539C25.9878 27.7049 26.3659 27.3268 26.815 27.3268C27.2758 27.3268 27.6421 27.7049 27.6421 28.1539V32.0532Z" fill="white"/>
</svg>
