<svg width="48" height="49" viewBox="0 0 48 49" fill="none" xmlns="http://www.w3.org/2000/svg">
<circle cx="24.2786" cy="24.4317" r="23.6321" fill="#1FC274"/>
<path d="M29.0051 15.2743C29.0051 16.7395 27.8117 17.933 26.3465 17.933H22.2109C21.4783 17.933 20.8166 17.6375 20.3321 17.1531C19.8476 16.6686 19.5522 16.0069 19.5522 15.2743C19.5522 13.8091 20.7457 12.6157 22.2109 12.6157H26.3465C27.0791 12.6157 27.7408 12.9111 28.2252 13.3956C28.7097 13.88 29.0051 14.5417 29.0051 15.2743Z" fill="white"/>
<path d="M32.3489 16.1961C32.0771 15.9716 31.7699 15.7944 31.4391 15.6644C31.0964 15.5344 30.7537 15.8062 30.6828 16.1607C30.2811 18.1812 28.4969 19.7055 26.3463 19.7055H22.2107C21.0291 19.7055 19.9184 19.2447 19.0795 18.4057C18.465 17.7913 18.0397 17.0114 17.8742 16.1725C17.8033 15.818 17.4488 15.5344 17.1062 15.6762C15.7355 16.2316 14.8257 17.4841 14.8257 20.0009V31.5215C14.8257 35.0664 16.9408 36.248 19.5521 36.248H29.005C31.6163 36.248 33.7314 35.0664 33.7314 31.5215V20.0009C33.7314 18.0749 33.1997 16.8933 32.3489 16.1961ZM19.5521 24.7273H24.2785C24.763 24.7273 25.1647 25.1291 25.1647 25.6135C25.1647 26.098 24.763 26.4997 24.2785 26.4997H19.5521C19.0676 26.4997 18.6659 26.098 18.6659 25.6135C18.6659 25.1291 19.0676 24.7273 19.5521 24.7273ZM29.005 31.2261H19.5521C19.0676 31.2261 18.6659 30.8244 18.6659 30.3399C18.6659 29.8555 19.0676 29.4537 19.5521 29.4537H29.005C29.4894 29.4537 29.8912 29.8555 29.8912 30.3399C29.8912 30.8244 29.4894 31.2261 29.005 31.2261Z" fill="white"/>
</svg>
