<svg width="147" height="26" viewBox="0 0 147 26" fill="none" xmlns="http://www.w3.org/2000/svg">
<path d="M24.374 9.49921L16.9737 8.37296L13.6655 1.34994C13.5752 1.15765 13.4265 1.00199 13.2429 0.907373C12.7824 0.669305 12.2228 0.867695 11.9925 1.34994L8.68439 8.37296L1.28407 9.49921C1.08005 9.52973 0.893508 9.63045 0.750689 9.78306C0.57803 9.9689 0.482887 10.2189 0.486166 10.4782C0.489445 10.7374 0.590878 10.9847 0.768177 11.1657L6.12241 16.6321L4.85744 24.351C4.82778 24.5306 4.84676 24.7153 4.91222 24.8841C4.97768 25.0529 5.08701 25.1992 5.22781 25.3063C5.3686 25.4134 5.53524 25.477 5.70882 25.49C5.88239 25.5029 6.05596 25.4647 6.20985 25.3796L12.829 21.7353L19.4482 25.3796C19.6289 25.4803 19.8388 25.5139 20.0399 25.4773C20.5471 25.3857 20.8881 24.8821 20.8006 24.351L19.5357 16.6321L24.8899 11.1657C25.0356 11.0161 25.1318 10.8208 25.161 10.6071C25.2397 10.073 24.8841 9.57857 24.374 9.49921Z" fill="#FDC301"/>
<path d="M54.9041 9.49921L47.3784 8.37296L44.0142 1.34994C43.9223 1.15765 43.7711 1.00199 43.5844 0.907373C43.1161 0.669305 42.547 0.867695 42.3128 1.34994L38.9486 8.37296L31.4228 9.49921C31.2154 9.52973 31.0257 9.63045 30.8804 9.78306C30.7048 9.9689 30.6081 10.2189 30.6114 10.4782C30.6147 10.7374 30.7179 10.9847 30.8982 11.1657L36.3432 16.6321L35.0568 24.351C35.0266 24.5306 35.0459 24.7153 35.1125 24.8841C35.1791 25.0529 35.2902 25.1992 35.4334 25.3063C35.5766 25.4134 35.7461 25.477 35.9226 25.49C36.0991 25.5029 36.2756 25.4647 36.4321 25.3796L43.1635 21.7353L49.8949 25.3796C50.0786 25.4803 50.292 25.5139 50.4966 25.4773C51.0123 25.3857 51.3591 24.8821 51.2702 24.351L49.9838 16.6321L55.4288 11.1657C55.577 11.0161 55.6748 10.8208 55.7044 10.6071C55.7845 10.073 55.4228 9.57857 54.9041 9.49921Z" fill="#FDC301"/>
<path d="M85.4471 9.49921L77.9213 8.37296L74.5571 1.34994C74.4653 1.15765 74.3141 1.00199 74.1273 0.907373C73.659 0.669305 73.0899 0.867695 72.8558 1.34994L69.4916 8.37296L61.9658 9.49921C61.7583 9.52973 61.5686 9.63045 61.4234 9.78306C61.2478 9.9689 61.151 10.2189 61.1544 10.4782C61.1577 10.7374 61.2609 10.9847 61.4412 11.1657L66.8862 16.6321L65.5997 24.351C65.5696 24.5306 65.5889 24.7153 65.6554 24.8841C65.722 25.0529 65.8332 25.1992 65.9764 25.3063C66.1196 25.4134 66.289 25.477 66.4655 25.49C66.6421 25.5029 66.8186 25.4647 66.9751 25.3796L73.7065 21.7353L80.4378 25.3796C80.6216 25.4803 80.835 25.5139 81.0395 25.4773C81.5553 25.3857 81.9021 24.8821 81.8132 24.351L80.5268 16.6321L85.9717 11.1657C86.1199 11.0161 86.2178 10.8208 86.2474 10.6071C86.3274 10.073 85.9658 9.57857 85.4471 9.49921Z" fill="#FDC301"/>
<path d="M115.991 9.49921L108.465 8.37296L105.101 1.34994C105.009 1.15765 104.858 1.00199 104.671 0.907373C104.202 0.669305 103.633 0.867695 103.399 1.34994L100.035 8.37296L92.5093 9.49921C92.3018 9.52973 92.1121 9.63045 91.9668 9.78306C91.7913 9.9689 91.6945 10.2189 91.6978 10.4782C91.7012 10.7374 91.8043 10.9847 91.9846 11.1657L97.4296 16.6321L96.1432 24.351C96.113 24.5306 96.1323 24.7153 96.1989 24.8841C96.2655 25.0529 96.3767 25.1992 96.5198 25.3063C96.663 25.4134 96.8325 25.477 97.009 25.49C97.1855 25.5029 97.362 25.4647 97.5185 25.3796L104.25 21.7353L110.981 25.3796C111.165 25.4803 111.378 25.5139 111.583 25.4773C112.099 25.3857 112.446 24.8821 112.357 24.351L111.07 16.6321L116.515 11.1657C116.663 11.0161 116.761 10.8208 116.791 10.6071C116.871 10.073 116.509 9.57857 115.991 9.49921Z" fill="#FDC301"/>
<path d="M146.129 9.49921L138.729 8.37296L135.421 1.34994C135.33 1.15765 135.182 1.00199 134.998 0.907373C134.538 0.669305 133.978 0.867695 133.748 1.34994L130.44 8.37296L123.039 9.49921C122.835 9.52973 122.649 9.63045 122.506 9.78306C122.333 9.9689 122.238 10.2189 122.241 10.4782C122.245 10.7374 122.346 10.9847 122.523 11.1657L127.878 16.6321L126.613 24.351C126.583 24.5306 126.602 24.7153 126.667 24.8841C126.733 25.0529 126.842 25.1992 126.983 25.3063C127.124 25.4134 127.29 25.477 127.464 25.49C127.638 25.5029 127.811 25.4647 127.965 25.3796L134.584 21.7353L141.203 25.3796C141.384 25.4803 141.594 25.5139 141.795 25.4773C142.302 25.3857 142.643 24.8821 142.556 24.351L141.291 16.6321L146.645 11.1657C146.791 11.0161 146.887 10.8208 146.916 10.6071C146.995 10.073 146.639 9.57857 146.129 9.49921Z" fill="#D9D9D9"/>
</svg>
