<svg width="30" height="30" viewBox="0 0 30 30" fill="none" xmlns="http://www.w3.org/2000/svg">
<path opacity="0.21" fill-rule="evenodd" clip-rule="evenodd" d="M0 15V18.5C0 24.8513 5.14873 30 11.5 30H15H18.5C24.8513 30 30 24.8513 30 18.5V15.0076C30 15.0051 30 15.0025 30 15C30 14.9974 30 14.9949 30 14.9924V11.5C30 5.14873 24.8513 0 18.5 0H15H11.5C5.14873 0 0 5.14872 0 11.5V15Z" fill="#FEC53D"/>
<path fill-rule="evenodd" clip-rule="evenodd" d="M7.5 12.158L13.9502 15.8821C14.0197 15.9222 14.0925 15.9511 14.1667 15.9695V23.1921L7.96003 19.519C7.67489 19.3503 7.5 19.0435 7.5 18.7122V12.158ZM22.4998 12.0591V18.7123C22.4998 19.0436 22.3249 19.3504 22.0397 19.5191L15.8331 23.1922V15.9063C15.8482 15.8988 15.8632 15.8907 15.878 15.8821L22.4998 12.0591Z" fill="#FEC53D"/>
<path opacity="0.499209" fill-rule="evenodd" clip-rule="evenodd" d="M7.70313 10.3507C7.78191 10.2512 7.88136 10.1671 7.9973 10.1054L14.5598 6.61005C14.8353 6.46332 15.1657 6.46332 15.4412 6.61005L22.0037 10.1054C22.0931 10.153 22.1727 10.2139 22.2405 10.2848L15.0455 14.4389C14.9981 14.4662 14.9545 14.4975 14.9148 14.532C14.875 14.4975 14.8314 14.4662 14.7841 14.4389L7.70313 10.3507Z" fill="#FEC53D"/>
</svg>
